<?xml version="1.0" encoding="utf-8"?>
<!-- Generator: Adobe Illustrator 17.0.0, SVG Export Plug-In . SVG Version: 6.00 Build 0)  -->
<!DOCTYPE svg PUBLIC "-//W3C//DTD SVG 1.1//EN" "http://www.w3.org/Graphics/SVG/1.1/DTD/svg11.dtd">
<svg version="1.1" id="图层_1" xmlns="http://www.w3.org/2000/svg" xmlns:xlink="http://www.w3.org/1999/xlink" x="0px" y="0px"
	 width="34px" height="34px" viewBox="0 0 34 34" enable-background="new 0 0 34 34" xml:space="preserve">
<path fill="#365394" d="M7.954,19.201c-0.041-0.022-0.081-0.046-0.119-0.074v0.404H7.701v-0.396L7.66,19.164
	c-0.031,0.024-0.063,0.045-0.097,0.064v-0.097c0.11-0.094,0.188-0.222,0.22-0.363H7.577v-0.096h0.349v0.092
	c-0.021,0.077-0.052,0.151-0.092,0.221c0.034,0.047,0.074,0.088,0.119,0.124L7.954,19.201z M7.729,18.65
	c-0.007-0.061-0.024-0.12-0.051-0.174h0.11c0.032,0.054,0.054,0.113,0.064,0.174H7.729z M7.981,19.293v-0.685h0.244v-0.134h0.129
	v0.133h0.244v0.523c0.006,0.113-0.046,0.167-0.156,0.161H8.354v0.239H8.225v-0.238L7.981,19.293z M8.106,18.705v0.191h0.12v-0.193
	L8.106,18.705z M8.106,19.197h0.12V18.99h-0.12V19.197z M8.478,18.705H8.354v0.191h0.124V18.705z M8.413,19.197
	c0.046,0.003,0.067-0.022,0.064-0.074V18.99H8.354v0.207L8.413,19.197z"/>
<path fill="#365394" d="M9.027,19.063c0.035-0.103,0.058-0.209,0.069-0.317h0.087c-0.011,0.107-0.028,0.212-0.05,0.317H9.027z
	 M9.069,19.532v-0.096c0.104-0.076,0.153-0.174,0.147-0.294v-0.653h0.138v0.63C9.366,19.305,9.271,19.443,9.069,19.532L9.069,19.532
	z M9.446,19.068c-0.012-0.11-0.029-0.218-0.051-0.322h0.083c0.029,0.106,0.051,0.213,0.064,0.322H9.446z M9.556,19.49v-0.983h0.138
	v0.984L9.556,19.49z M9.781,19.068c-0.009-0.108-0.026-0.216-0.05-0.322h0.083c0.029,0.106,0.052,0.213,0.069,0.322H9.781z
	 M9.896,19.527v-1.039h0.138v1.039L9.896,19.527z"/>
<path fill="#365394" d="M10.576,19.527v-0.662c-0.041,0.023-0.084,0.042-0.129,0.055v-0.083c0.114-0.074,0.186-0.195,0.216-0.363
	h0.147c-0.031,0.116-0.063,0.199-0.097,0.248v0.804H10.576z M10.769,18.792v-0.096h0.202v-0.221h0.142v0.221h0.391v0.096h-0.396
	c-0.006,0.322-0.121,0.568-0.345,0.74v-0.115c0.132-0.165,0.199-0.374,0.202-0.625L10.769,18.792z M11.27,19.495
	c-0.101,0.003-0.15-0.043-0.147-0.138v-0.483h0.138v0.473c-0.003,0.043,0.017,0.063,0.06,0.06h0.037
	c0.04,0.003,0.058-0.017,0.055-0.06v-0.055h0.102v0.073c0.003,0.089-0.041,0.132-0.133,0.129L11.27,19.495z M11.256,18.658
	c-0.006-0.057-0.02-0.112-0.041-0.166h0.119c0.025,0.053,0.042,0.108,0.051,0.166H11.256z"/>
<path fill="#365394" d="M11.934,18.677V18.58h0.253l0.014-0.041c0.007-0.021,0.013-0.043,0.018-0.064h0.165
	c-0.006,0.016-0.015,0.037-0.028,0.064l-0.014,0.041h0.589v0.097h-0.63c-0.046,0.093-0.1,0.182-0.161,0.267h0.235v-0.17h0.156v0.17
	h0.335v0.101h-0.335v0.166h0.427v0.101h-0.427v0.221h-0.156v-0.221h-0.474V19.21h0.474v-0.166h-0.372v-0.101
	c0.055-0.085,0.105-0.174,0.147-0.267H11.934z"/>
<path fill="#365394" d="M13.406,19.081v-0.294c-0.019,0.003-0.037,0.008-0.055,0.014v-0.083c0.081-0.051,0.139-0.132,0.161-0.225
	h0.147c-0.005,0.022-0.013,0.044-0.023,0.064h0.175v-0.083h0.156v0.083h0.414v0.074h-0.413v0.074h0.414v0.074h-0.414v0.073h0.414
	v0.078h-0.414v0.078h0.414v0.074h-0.414v0.087h0.437v0.083h-0.192c0.034,0.086,0.108,0.151,0.197,0.175v0.092
	c-0.188-0.049-0.302-0.138-0.345-0.267h-0.096v0.271h-0.156v-0.271h-0.116c-0.046,0.129-0.161,0.218-0.345,0.267v-0.092
	c0.098-0.034,0.164-0.092,0.197-0.175h-0.188v-0.083h0.45v-0.087H13.406z M13.599,18.631c-0.011,0.019-0.023,0.038-0.037,0.055
	l-0.009,0.009v0.009h0.258V18.63L13.599,18.631z M13.553,18.778v0.073h0.258v-0.073H13.553z M13.553,18.929v0.078h0.258v-0.078
	H13.553z"/>
<path fill="#365394" d="M14.833,19.504v-0.997h0.993v0.832c0.003,0.113-0.054,0.168-0.17,0.165H14.833z M15.036,18.856v-0.092h0.358
	v-0.11h0.143v0.11h0.138v-0.156h-0.689v0.809h0.621c0.049,0,0.072-0.024,0.069-0.073v-0.487h-0.138v0.345
	c0.003,0.104-0.046,0.155-0.147,0.152h-0.101v-0.087h0.047c0.029,0.004,0.056-0.016,0.06-0.045c0.001-0.005,0.001-0.01,0-0.015
	v-0.349h-0.037c-0.028,0.227-0.135,0.391-0.322,0.493v-0.097c0.107-0.105,0.172-0.247,0.182-0.397L15.036,18.856z"/>
<path fill="#365394" d="M1.096,19.217c0,0.043-0.172,0.095-0.265,0.095H0.468c-0.109,0-0.267-0.053-0.267-0.095v-0.704h-0.202v0.758
	c0,0.085,0.063,0.151,0.188,0.196c0.09,0.032,0.186,0.047,0.281,0.047H0.83c0.31,0,0.467-0.082,0.467-0.243v-0.758H1.095
	L1.096,19.217z"/>
<path fill="#365394" d="M1.599,18.558c-0.123,0.043-0.185,0.11-0.185,0.2v0.514c0,0.096,0.063,0.164,0.188,0.205
	c0.091,0.027,0.186,0.04,0.281,0.038h0.83v-0.202h-0.83c-0.106,0-0.261-0.013-0.261-0.075v-0.427c0-0.063,0.107-0.096,0.261-0.096
	h0.83v-0.202h-0.83C1.786,18.512,1.69,18.527,1.599,18.558z"/>
<path fill="#365394" d="M5.399,19.163h0.139c0.072,0.001,0.143-0.015,0.208-0.047c0.081-0.039,0.122-0.095,0.122-0.167v-0.191
	c0-0.106-0.06-0.178-0.178-0.215c-0.063-0.02-0.161-0.03-0.29-0.03H4.57v1.001h0.202v-0.352l0.3,0.002l0.478,0.349h0.357
	L5.399,19.163z M4.772,18.716h0.629c0.213,0,0.265,0.032,0.265,0.053v0.152c0,0.014-0.04,0.042-0.256,0.042l-0.639,0.001V18.716z"/>
<path fill="#365394" d="M2.828,19.514l0.469-0.738c0.024-0.04,0.047-0.077,0.07-0.109c0.021-0.031,0.045-0.059,0.073-0.083
	c0.026-0.023,0.056-0.041,0.089-0.052c0.038-0.013,0.077-0.019,0.117-0.018c0.039-0.001,0.077,0.006,0.113,0.019
	c0.031,0.012,0.06,0.03,0.085,0.053c0.027,0.025,0.051,0.054,0.07,0.085c0.022,0.033,0.045,0.07,0.07,0.113l0.469,0.731H4.201
	l-0.152-0.219H3.227L3.09,19.514H2.828z M3.969,19.116L3.64,18.652l-0.318,0.463H3.969z"/>
<path fill="#365394" d="M6.746,18.395h0.063v1.171H6.746V18.395z"/>
</svg>
