<?xml version="1.0" encoding="UTF-8"?>
<svg width="40px" height="40px" viewBox="0 0 40 40" version="1.1" xmlns="http://www.w3.org/2000/svg" xmlns:xlink="http://www.w3.org/1999/xlink">
    <!-- Generator: Sketch 60.1 (88133) - https://sketch.com -->
    <title>Fill 1</title>
    <desc>Created with Sketch.</desc>
    <g id="页面-1" stroke="none" stroke-width="1" fill="none" fill-rule="evenodd">
        <g id="web首页1" transform="translate(-1150.000000, -1788.000000)" fill="#365393">
            <g id="置顶按钮" transform="translate(1150.000000, 1788.000000)">
                <path d="M26.3732905,10 L13.6267095,10 C13.0050767,10 12.5,10.4480937 12.5,10.9997928 C12.5,11.5520099 13.0050767,12.0001036 13.6267095,12.0001036 L26.3732905,12.0001036 C26.9949233,12.0001036 27.5,11.5520099 27.5,10.9997928 C27.5,10.4480937 26.9949233,10 26.3732905,10 M19.999482,30 C20.6211148,30 21.1256734,29.5042478 21.1256734,28.8929755 L21.1256734,17.7771446 L25.5770825,22.1477414 C25.7972441,22.3632408 26.0842312,22.4720265 26.3732905,22.4720265 C26.6623498,22.4720265 26.949855,22.3632408 27.1700166,22.1477414 C27.6103398,21.7157066 27.6103398,21.0153336 27.1700166,20.5827808 L20.79569,14.3239743 C20.3527766,13.8914215 19.6456693,13.8914215 19.2022379,14.3239743 L12.8299834,20.5827808 C12.6186283,20.7884376 12.499482,21.0707625 12.499482,21.3655201 C12.499482,21.6597596 12.6186283,21.9420845 12.8299834,22.1477414 C13.050145,22.3632408 13.3371322,22.4720265 13.6267095,22.4720265 C13.9152507,22.4720265 14.2027559,22.3632408 14.4229175,22.1477414 L18.8727725,17.7771446 L18.8727725,28.8929755 C18.8727725,29.5042478 19.3773311,30 19.999482,30 M20,40 C8.9546208,40 0,31.0448612 0,20 C0,8.95410278 8.9546208,0 20,0 C31.0458972,0 40,8.95410278 40,20 C40,31.0448612 31.0458972,40 20,40" id="Fill-1"></path>
            </g>
        </g>
    </g>
</svg>