<?xml version="1.0" encoding="UTF-8"?>
<svg width="18px" height="18px" viewBox="0 0 18 18" version="1.1" xmlns="http://www.w3.org/2000/svg" xmlns:xlink="http://www.w3.org/1999/xlink">
    <!-- Generator: Sketch 60.1 (88133) - https://sketch.com -->
    <title>车头条</title>
    <desc>Created with Sketch.</desc>
    <g id="页面-1" stroke="none" stroke-width="1" fill="none" fill-rule="evenodd">
        <g id="web首页二级目录无" transform="translate(-46.000000, -1035.000000)" fill="#365393">
            <g id="车头条" transform="translate(46.000000, 1035.000000)">
                <path d="M18.0000783,-3.64153152e-13 L18.0000783,14.6120016 C18.0000783,15.5107174 17.6581304,16.3727001 17.0496059,17.0082086 C16.4410814,17.643441 15.6156991,18.0002759 14.7551434,18 L14.7551434,18 L3.24263295,18 C1.4514395,17.9991711 -0.000186199998,16.4826229 7.82608691e-05,14.6120016 L7.82608691e-05,14.6120016 L7.82608691e-05,3.38689329 L2.88243725,3.38689329 L2.88243725,-3.64153152e-13 L18.0000783,-3.64153152e-13 Z M16.9202845,1.12822793 L3.92044616,1.12822793 L3.92094234,13.6801437 C3.92831143,13.8461942 4.00359265,15.937251 3.16197239,16.7085447 C3.47165606,16.8159818 3.79588509,16.8712194 4.1222298,16.8723241 L4.1222298,16.8723241 L13.8546542,16.8723241 C15.5477326,16.8714956 16.9200201,15.4378037 16.9202845,13.6696482 L16.9202845,13.6696482 L16.9202845,1.12822793 Z M2.88243725,4.46927401 L1.05950774,4.46927401 L1.05950774,13.669372 C1.05897957,14.4529174 1.33507672,15.2091201 1.8346433,15.7935339 C2.29903658,15.5772787 2.88243725,14.9566843 2.88243725,13.2236046 L2.88243725,13.2236046 L2.88243725,4.46927401 Z M14.7077098,13.0005028 L14.7077098,14 L11,14 L11,13.0005028 L14.7077098,13.0005028 Z M10,7 L10,14 L5,14 L5,7 L10,7 Z M14.7077098,10.9786325 L14.7077098,11.9766633 L11,11.9766633 L11,10.9786325 L14.7077098,10.9786325 Z M14.7077098,9.00339367 L14.7077098,10.0028909 L11,10.0028909 L11,9.00339367 L14.7077098,9.00339367 Z M14.7077098,7 L14.7077098,7.99949723 L11,7.99949723 L11,7 L14.7077098,7 Z M14.0062781,4 C14.0208479,4.00208627 14.0354177,4.00301351 14.0502677,4.00301351 C14.0648375,4.00301351 14.0796875,4.00417255 14.0942573,4.00602701 C14.2982343,4.01251764 14.4977284,4.05934291 14.6753678,4.14279387 C14.8541279,4.22647664 14.9608796,4.38271539 14.9961834,4.61174192 L14.2775004,4.60942383 C14.2699353,4.56352581 14.2365929,4.52319117 14.1878401,4.50047397 C14.1357251,4.4733524 14.0771658,4.45550317 14.0160847,4.4478535 L13.9771386,4.44368095 C13.9656508,4.44368095 13.9536027,4.44205829 13.9426754,4.44205829 C13.9031688,4.44159468 13.8639425,4.44715807 13.8266774,4.45828487 C13.7950162,4.46500731 13.769519,4.48401558 13.7580313,4.50928268 L13.7580313,4.51530969 C13.7577511,4.5183232 13.7566304,4.52133671 13.7546691,4.52411841 L13.7546691,4.52945 C13.7521474,4.53339074 13.7499059,4.53825871 13.7473842,4.54428572 C13.7473842,4.59296545 13.7913737,4.63214104 13.8799132,4.6620443 C13.9748971,4.69380203 14.0732431,4.71791009 14.1738307,4.73367305 C14.1783137,4.73552751 14.1833571,4.73691836 14.1881203,4.7380774 L14.2018496,4.7380774 L14.2018496,4.7380774 C14.462985,4.77887565 14.6694838,4.84401376 14.8221864,4.93302812 C14.9746089,5.02227429 15.056704,5.15556402 15.0684719,5.33266551 L15.0684719,5.35862803 C15.0763172,5.55288333 14.955556,5.7350846 14.7532601,5.83406671 C14.5445198,5.94417562 14.3015966,6.00189587 14.0539101,5.99980959 C13.7978181,6.00351853 13.5450882,5.95298433 13.3189763,5.85330679 C13.1007096,5.75409287 12.9914362,5.58765456 12.9914362,5.35445548 L13.7101191,5.35167378 C13.7235682,5.41194392 13.7655964,5.46549163 13.8266774,5.50049467 C13.881034,5.52970251 13.942115,5.5491744 14.0062781,5.55728768 C14.0186064,5.55659226 14.0306545,5.55659226 14.0429828,5.55728768 C14.0553111,5.55821492 14.0679196,5.55891034 14.080528,5.55867853 C14.1402081,5.56099662 14.1990477,5.54592908 14.2472401,5.51625763 C14.2856259,5.49539489 14.3119636,5.4620145 14.3198088,5.42469338 C14.3198088,5.40985765 14.3189683,5.40406244 14.3181277,5.39826724 C14.3172871,5.39316746 14.3153258,5.38829949 14.3125239,5.38412694 C14.3041183,5.36280058 14.2887079,5.3435605 14.2685344,5.32872477 C14.2427571,5.30948469 14.2122165,5.29557619 14.1788741,5.28769471 L14.1225563,5.2761043 C14.1035035,5.27239537 14.0847309,5.26845463 14.0659582,5.26405027 C14.0471856,5.25987773 14.0334564,5.25732784 14.0169253,5.25385071 C14.0003942,5.25037359 13.9824621,5.24759189 13.9639697,5.24388296 C13.7417804,5.19868035 13.5260354,5.13377405 13.3209376,5.05009128 C13.1248058,4.96965382 13.0267399,4.82755538 13.0264597,4.62402775 C13.0264597,4.61475542 13.0264597,4.60455586 13.028421,4.59366088 C13.0301022,4.5829977 13.0315031,4.57302994 13.0337446,4.563294 C13.0362663,4.55355805 13.0337446,4.54428572 13.0354257,4.53478158 C13.0368267,4.52643649 13.0385078,4.5183232 13.0410295,4.51020991 C13.0617634,4.37599295 13.1458199,4.25800256 13.293199,4.15623875 C13.439177,4.05401132 13.6481975,4.00301351 13.9180188,4.00301351 L14.0062781,4 Z M12.8611486,4.04010282 L12.3184239,5.94023488 L11.575925,5.94023488 L11.2974178,4.8590813 L11.0505719,5.94023488 L10.3069522,5.94023488 L9.71883699,4.06027014 L10.4798284,4.06027014 L10.733679,5.20308471 L10.9553079,4.06027014 L11.6493343,4.06027014 L11.8961802,5.20308471 L12.1458279,4.04010282 L12.8611486,4.04010282 Z M9.55660798,4.08066926 L9.55660798,4.5266683 L8.46863686,4.5266683 L8.46863686,4.7774848 L9.38457237,4.7774848 L9.38457237,5.22325203 L8.46863686,5.22325203 L8.46863686,5.49423585 L9.6062013,5.49423585 L9.6062013,5.94023488 L7.7000804,5.94023488 L7.7000804,4.08066926 L9.55660798,4.08066926 Z M5.76285859,4.06027014 L6.55523106,5.03965991 L6.53057449,4.73645474 L6.53057449,4.06027014 L7.27391402,4.06027014 L7.27391402,5.94023488 L6.55523106,5.94023488 L5.76285859,4.93743248 L5.78751516,5.24365115 L5.78751516,5.94023488 L5.06883221,5.94023488 L5.06883221,4.06027014 L5.76285859,4.06027014 Z" id="形状结合"></path>
            </g>
        </g>
    </g>
</svg>