<?xml version="1.0" encoding="UTF-8"?>
<svg width="18px" height="18px" viewBox="0 0 18 18" version="1.1" xmlns="http://www.w3.org/2000/svg" xmlns:xlink="http://www.w3.org/1999/xlink">
    <!-- Generator: Sketch 60.1 (88133) - https://sketch.com -->
    <title>一级目录默认图标</title>
    <desc>Created with Sketch.</desc>
    <g id="页面-1" stroke="none" stroke-width="1" fill="none" fill-rule="evenodd">
        <g id="web首页1" transform="translate(-46.000000, -1443.000000)" fill="#365393">
            <g id="一级目录默认图标" transform="translate(46.000000, 1443.000000)">
                <path d="M9,0 C13.9705627,0 18,4.02943725 18,9 C18,13.9705627 13.9705627,18 9,18 C4.02943725,18 0,13.9705627 0,9 C0,4.02943725 4.02943725,0 9,0 Z M10.496425,8.335 C10.403675,8.331 10.310925,8.349 10.223425,8.383 C10.148175,8.413 10.078175,8.461 10.015175,8.521 C9.952175,8.587 9.896175,8.661 9.847175,8.743 C9.792925,8.829 9.738675,8.927 9.682675,9.035 L9.682675,9.035 L8.590675,10.999 L9.199675,10.999 L9.521675,10.415 L11.432675,10.415 L11.787925,10.999 L12.379425,10.999 L11.285675,9.053 C11.227925,8.939 11.173675,8.839 11.122925,8.751 C11.075675,8.667 11.021425,8.593 10.958425,8.525 C10.900675,8.465 10.834175,8.417 10.760675,8.385 C10.676675,8.349 10.587425,8.331 10.496425,8.335 Z M2.47215,8.3324 L1.99965,8.3324 L1.99965,10.3524 C1.99965,10.5804 2.14665,10.7544 2.43715,10.8744 C2.64715,10.9584 2.8694,11.0004 3.0934,10.9984 L3.9369,10.9984 C4.65965,10.9984 5.0254,10.7824 5.0254,10.3524 L5.0254,8.3344 L4.55465,8.3344 L4.5564,10.2064 C4.5564,10.3204 4.15565,10.4604 3.93865,10.4604 L3.0934,10.4604 C2.83965,10.4604 2.47215,10.3204 2.47215,10.2064 L2.47215,8.3324 Z M8.3196,8.3346 L6.3876,8.3346 C6.1636,8.3306 5.94135,8.3706 5.72785,8.4526 C5.44085,8.5666 5.2956,8.7446 5.2956,8.9866 L5.2956,10.3526 C5.2956,10.6066 5.4426,10.7906 5.7331,10.8986 C5.9466,10.9706 6.1671,11.0046 6.3876,10.9986 L8.32135,10.9986 L8.32135,10.4626 L6.3876,10.4626 C6.14085,10.4626 5.78035,10.4266 5.78035,10.2626 L5.78035,9.1266 C5.78035,8.9586 6.02885,8.8726 6.3876,8.8726 L8.3196,8.8726 L8.3196,8.3346 Z M14.5832,8.3344 L12.6477,8.3344 L12.6477,10.9984 L13.11845,10.9984 L13.11845,10.0624 L13.8167,10.0684 L14.93145,10.9964 L15.7627,10.9964 L14.5797,10.0644 L14.90345,10.0644 C15.07145,10.0664 15.23595,10.0224 15.3882,9.9384 C15.5772,9.8344 15.6717,9.6844 15.6717,9.4964 L15.6717,8.9864 C15.6717,8.7024 15.53345,8.5104 15.2587,8.4144 C15.1117,8.3604 14.8842,8.3344 14.5832,8.3344 Z M10.482425,8.703 L11.247175,9.937 L9.740425,9.937 L10.482425,8.703 Z M14.5832,8.8724 C15.0802,8.8724 15.20095,8.9564 15.20095,9.0124 L15.20095,9.4144 C15.20095,9.4524 15.10995,9.5264 14.60595,9.5264 L13.11845,9.5304 L13.11845,8.8724 L14.5832,8.8724 Z" id="形状结合"></path>
            </g>
        </g>
    </g>
</svg>