<?xml version="1.0" standalone="no"?><!DOCTYPE svg PUBLIC "-//W3C//DTD SVG 1.1//EN" "http://www.w3.org/Graphics/SVG/1.1/DTD/svg11.dtd"><svg t="1582614520399" class="icon" viewBox="0 0 1024 1024" version="1.1" xmlns="http://www.w3.org/2000/svg" p-id="17713" xmlns:xlink="http://www.w3.org/1999/xlink" width="200" height="200"><defs><style type="text/css"></style></defs><path d="M80.470412 559.396571l405.723429-405.723429q10.825143-10.825143 25.746286-10.825143t25.746286 10.825143l405.723429 405.723429q10.825143 10.825143 7.460571 18.285714t-18.285714 7.460571l-841.142857 0q-14.848 0-18.285714-7.460571t7.460571-18.285714zM914.22584 877.714286l-804.571429 0q-14.848 0-25.746286-10.825143t-10.825143-25.746286l0-146.285714q0-14.848 10.825143-25.746286t25.746286-10.825143l804.571429 0q14.848 0 25.746286 10.825143t10.825143 25.746286l0 146.285714q0 14.848-10.825143 25.746286t-25.746286 10.825143z" p-id="17714"></path></svg>