<?xml version="1.0" encoding="UTF-8"?>
<svg width="16px" height="16px" viewBox="0 0 16 16" version="1.1" xmlns="http://www.w3.org/2000/svg" xmlns:xlink="http://www.w3.org/1999/xlink">
    <!-- Generator: Sketch 60.1 (88133) - https://sketch.com -->
    <title>新闻-查看数@2x</title>
    <desc>Created with Sketch.</desc>
    <g id="页面-1" stroke="none" stroke-width="1" fill="none" fill-rule="evenodd">
        <g id="web首页1" transform="translate(-807.000000, -1078.000000)" fill="#666666" fill-rule="nonzero">
            <g id="编组-3" transform="translate(258.000000, 1018.000000)">
                <g id="编组-8" transform="translate(549.000000, 60.000000)">
                    <g id="iconyanjing" transform="translate(0.000000, 3.000000)">
                        <path d="M8.00001029,0.720654352 C9.8175502,0.720654352 11.341393,1.46118675 12.2997091,2.08239081 C12.9230002,2.48643767 13.4966938,2.96006774 14.0048677,3.49012904 C14.4700681,3.97536963 14.8570356,4.48289046 15.1560812,4.99983986 C14.5263307,6.08374404 13.489823,7.14230522 12.2994005,7.91484669 C11.340241,8.53733192 9.8157399,9.27932564 8.00003086,9.27932564 C6.18362238,9.27932564 4.65986185,8.53739195 3.70146352,7.91500683 C2.51081475,7.14180476 1.47661103,6.08310345 0.851262763,4.99985988 C1.14839525,4.48291049 1.53406679,3.97520949 1.99867059,3.48956854 C2.50548678,2.95980752 3.07827526,2.48631758 3.70115496,2.08227071 C4.6586687,1.46110668 6.18179155,0.720654352 8.00001029,0.720654352 L8.00001029,0.720654352 Z M8.00001029,0 C4.58483815,0 1.47008991,2.37673809 0.158029055,4.73087565 L0,5.00024022 L0.158029055,5.26914439 C1.47008991,7.61549488 4.58483815,10 8.00001029,10 C11.4147504,10 14.5294575,7.61545483 15.8495618,5.26914439 L16,5.00024022 L15.8495618,4.73087565 C14.5294575,2.37673809 11.4147504,0 8.00001029,0 L8.00001029,0 Z" id="形状"></path>
                        <path d="M8,3.67887382 C8.72846932,3.67887382 9.32112618,4.27153066 9.32112618,5 C9.32112618,5.72846934 8.72846934,6.32112618 8,6.32112618 C7.27153066,6.32112618 6.67887382,5.72846934 6.67887382,5 C6.67887382,4.27153066 7.27153068,3.67887382 8,3.67887382 L8,3.67887382 Z M8,3 C6.89543458,3 6,3.89541571 6,5 C6,6.10458429 6.89541571,7 8,7 C9.10458429,7 10,6.10458429 10,5 C10,3.89541571 9.10456544,3 8,3 L8,3 Z" id="形状"></path>
                    </g>
                </g>
            </g>
        </g>
    </g>
</svg>