<?xml version="1.0" encoding="UTF-8"?>
<svg width="300px" height="22px" viewBox="0 0 300 22" version="1.1" xmlns="http://www.w3.org/2000/svg" xmlns:xlink="http://www.w3.org/1999/xlink">
    <!-- Generator: Sketch 60.1 (88133) - https://sketch.com -->
    <title>Clip 10</title>
    <desc>Created with Sketch.</desc>
    <defs>
        <polygon id="path-1" points="0 22 300 22 300 0 0 0"></polygon>
    </defs>
    <g id="页面-1" stroke="none" stroke-width="1" fill="none" fill-rule="evenodd">
        <g id="web首页1" transform="translate(-30.000000, -39.000000)">
            <g id="logo" transform="translate(30.000000, 39.000000)">
                <g id="编组-18">
                    <path d="M159.837485,14.9947138 C160.717631,15.0481436 161.12715,14.604332 161.067865,13.6624172 L161.067865,11.2442903 L158.692839,11.2442903 L158.692839,14.9860961 L159.837485,14.9947138 Z M158.692839,9.5483267 L161.067865,9.5483267 L161.067865,6.08745792 L158.692839,6.08745792 L158.692839,9.5483267 Z M153.943697,14.9947138 L156.23299,14.9947138 L156.23299,11.2442903 L153.943697,11.2442903 L153.943697,14.9947138 Z M153.943697,6.08745792 L153.943697,9.5483267 L156.23299,9.5483267 L156.23299,6.05729596 L153.943697,6.08745792 Z M151.568671,16.7251482 L151.568671,4.33117042 L156.23299,4.33117042 L156.23299,1.91304348 L158.692839,1.91304348 L158.692839,4.32255272 L163.357158,4.32255272 L163.357158,13.7899592 C163.473902,15.8392485 162.477011,16.8096017 160.367397,16.7001569 L158.692839,16.7001569 L158.692839,21.021934 L156.23299,21.021934 L156.23299,16.7122217 L151.568671,16.7251482 Z M146.729235,5.08608104 C146.597897,3.98904769 146.270464,2.92217628 145.759706,1.93027888 L147.873881,1.93027888 C148.487703,2.9014938 148.904518,3.97095051 149.104261,5.08608104 L146.729235,5.08608104 Z M151.038759,15.0619319 C150.245259,14.6689647 149.481858,14.2234296 148.754027,13.7304971 L148.754027,21.0434783 L146.203883,21.0434783 L146.203883,13.8873392 L145.414032,14.3880277 C144.825747,14.8137421 144.208277,15.2024004 143.564356,15.5505555 L143.564356,13.7899592 C145.676707,12.0827926 147.155171,9.7818664 147.784498,7.22327093 L143.824296,7.22327093 L143.824296,5.48077175 L150.508847,5.48077175 L150.508847,7.14398808 C150.108449,8.54005566 149.517428,9.88183173 148.749467,11.1348455 C149.399771,11.9776567 150.167733,12.7325673 151.034198,13.3780331 L151.038759,15.0619319 Z" id="Fill-1" fill="#365394"></path>
                    <path d="M187.521771,20.9613771 L187.521771,1.91304348 L190.09901,1.91304348 L190.09901,20.952643 L187.521771,20.9613771 Z M185.373776,12.5355312 C185.209025,10.5493828 184.893772,8.57808241 184.431579,6.63822506 L185.979347,6.63822506 C186.513674,8.57982925 186.943808,10.5485093 187.267076,12.5355312 L185.373776,12.5355312 Z M181.165949,20.2739986 L181.165949,2.25280238 L183.743187,2.25280238 L183.743187,20.2827328 L181.165949,20.2739986 Z M179.106117,12.5355312 C178.878138,10.5118259 178.561994,8.54576602 178.159468,6.63822506 L179.706345,6.63822506 C180.249578,8.57284192 180.651214,10.5441423 180.907691,12.5355312 L179.106117,12.5355312 Z M172.062794,21.0434783 L172.062794,19.280051 C174.008635,17.8790914 174.924116,16.0816009 174.811017,13.8893263 L174.811017,1.91304348 L177.388255,1.91304348 L177.388255,13.4552384 C177.612673,16.883397 175.836035,19.4093166 172.058341,21.0347441 L172.062794,21.0434783 Z M171.287129,12.4455693 C171.940789,10.562484 172.371813,8.61214565 172.570405,6.63385798 L174.205446,6.63385798 C174.005073,8.58681658 173.690711,10.5275473 173.263249,12.4455693 L171.287129,12.4455693 Z" id="Fill-3" fill="#365394"></path>
                    <path d="M213.030836,5.24532496 C212.913231,4.21735406 212.655914,3.21008057 212.265076,2.24765145 L214.480123,2.24765145 C214.938164,3.19886948 215.254726,4.20786776 215.420081,5.24532496 L213.030836,5.24532496 Z M213.288153,20.3932349 C211.410005,20.4475656 210.500996,19.6153576 210.559357,17.8983358 L210.559357,9.15368408 L213.118377,9.15368408 L213.118377,17.7198207 C213.060017,18.4951108 213.429633,18.8547282 214.228111,18.7978103 L214.910753,18.7978103 C215.648218,18.8547282 215.989538,18.4951108 215.93383,17.7198207 L215.93383,16.7228959 L217.819052,16.7228959 L217.819052,18.0423552 C217.875644,19.6507157 217.052407,20.424281 215.346688,20.3725375 L213.288153,20.3932349 Z M203.991145,7.66002168 L203.991145,5.9154033 L207.74744,5.9154033 L207.74744,1.91304348 L210.389581,1.91304348 L210.389581,5.90764177 L217.639549,5.90764177 L217.639549,7.65139776 L210.293197,7.65139776 C210.17736,13.4751288 208.044549,17.9397306 203.895646,21.0434783 L203.895646,18.9633895 C206.33883,15.970028 207.58916,12.1987891 207.64752,7.65139776 L203.991145,7.66002168 Z M200.409931,20.9667254 L200.409931,8.98896727 C199.655665,9.40981441 198.85365,9.74442238 198.019802,9.98589206 L198.019802,8.49222965 C200.126971,7.1598345 201.463073,4.96935962 202.028993,1.9216674 L204.761327,1.9216674 C204.181259,4.02935268 203.583505,5.52646464 202.968951,6.4130033 L202.968951,20.9667254 L200.409931,20.9667254 Z" id="Fill-5" fill="#365394"></path>
                    <path d="M226.348557,5.57483264 L226.348557,3.82669036 L231.079506,3.82669036 L231.33832,3.07933367 C231.471297,2.6966043 231.582855,2.3078409 231.672102,1.91304348 L234.76895,1.91304348 C234.654715,2.19578049 234.482469,2.58281989 234.250429,3.07588566 L233.991614,3.82238034 L245.026033,3.82238034 L245.026033,5.57052263 L233.231236,5.57052263 C232.361084,7.25315268 231.355277,8.86768448 230.222741,10.398602 L234.615446,10.398602 L234.615446,7.32211293 L237.540942,7.32211293 L237.540942,10.398602 L243.8221,10.398602 L243.8221,12.2269106 L237.540942,12.2269106 L237.540942,15.2223713 L245.544554,15.2223713 L245.544554,17.0506799 L237.540942,17.0506799 L237.540942,21.0434783 L234.615446,21.0434783 L234.615446,17.0506799 L225.742574,17.0506799 L225.742574,15.2223713 L234.610984,15.2223713 L234.610984,12.2269106 L227.639952,12.2269106 L227.639952,10.398602 C228.676994,8.85734045 229.598017,7.24453265 230.394094,5.57483264 L226.348557,5.57483264 Z" id="Fill-7" fill="#365394"></path>
                    <mask id="mask-2" fill="white">
                        <use xlink:href="#path-1"></use>
                    </mask>
                    <g id="Clip-10"></g>
                    <path d="M257.239742,11.6469872 L262.067188,11.6469872 L262.067188,10.2215106 L257.239742,10.2215106 L257.239742,11.6469872 Z M257.239742,8.79255517 L262.067188,8.79255517 L262.067188,7.45231149 L257.239742,7.45231149 L257.239742,8.79255517 Z M258.117136,4.76834523 C257.914729,5.12058319 257.684681,5.45716613 257.428774,5.77374542 L257.257576,5.94073231 L257.257576,6.10771919 L262.085022,6.10771919 L262.085022,4.76399662 L258.117136,4.76834523 Z M254.505022,12.9915795 L254.505022,7.62364699 C254.155491,7.68104873 253.810419,7.76628162 253.474263,7.87586676 L253.474263,6.3651573 C254.99276,5.43194415 256.074343,3.95428418 256.485398,2.25049614 L259.236169,2.25049614 C259.134519,2.65752666 258.987395,3.05238107 258.797472,3.42810155 L262.067188,3.42810155 L262.067188,1.91304348 L264.990049,1.91304348 L264.990049,3.42375294 L272.731439,3.42375294 L272.731439,4.76834523 L264.998966,4.76834523 L264.998966,6.11206781 L272.740356,6.11206781 L272.740356,7.4566601 L264.998966,7.4566601 L264.998966,8.79690378 L272.740356,8.79690378 L272.740356,10.2215106 L264.998966,10.2215106 L264.998966,11.6469872 L272.740356,11.6469872 L272.740356,12.9915795 L264.998966,12.9915795 L264.998966,14.5840429 L273.170136,14.5840429 L273.170136,16.0947524 L269.571397,16.0947524 C270.210717,17.6724306 271.583873,18.8569938 273.267327,19.2840279 L273.267327,20.9617243 C269.755971,20.0659092 267.607071,18.4430054 266.819735,16.0947524 L265.015907,16.0947524 L265.015907,21.0434783 L262.093938,21.0434783 L262.093938,16.0947524 L259.916505,16.0947524 C259.056053,18.4456146 256.906262,20.0693881 253.465347,20.9617243 L253.465347,19.2840279 C255.296816,18.6673941 256.528198,17.6045921 257.160385,16.0947524 L253.64992,16.0947524 L253.64992,14.5840429 L262.076105,14.5840429 L262.076105,12.9915795 L254.505022,12.9915795 Z" id="Fill-9" fill="#365394" mask="url(#mask-2)"></path>
                    <path d="M285.023377,8.2759029 L285.023377,6.60096352 L291.813625,6.60096352 L291.813625,4.59259918 L294.514917,4.59259918 L294.514917,6.60096352 L297.127732,6.60096352 L297.127732,3.75469534 L284.072688,3.75469534 L284.072688,18.4948566 L295.830353,18.4948566 C296.757568,18.4948566 297.192736,18.0485534 297.13676,17.1576836 L297.13676,8.2759029 L294.523946,8.2759029 L294.523946,14.5666939 C294.579922,16.4673898 293.651804,17.3886499 291.737786,17.3322107 L289.821963,17.3322107 L289.821963,15.7423642 L290.711259,15.7423642 C291.257476,15.8187741 291.764871,15.4540905 291.843418,14.9279043 C291.856961,14.83847 291.856961,14.7464308 291.844321,14.6569965 L291.844321,8.28892732 L291.150941,8.28892732 C290.627295,12.4228757 288.595908,15.4150173 285.058587,17.2644838 L285.058587,15.502715 C287.092682,13.5820484 288.322348,11.0101611 288.516459,8.2759029 L285.023377,8.2759029 Z M281.188119,20.0847031 L281.188119,1.91304348 L299.997855,1.91304348 L299.997855,17.0717225 C300.054734,19.1373942 298.980356,20.1411423 296.776528,20.0847031 L281.188119,20.0847031 Z" id="Fill-11" fill="#365394" mask="url(#mask-2)"></path>
                    <path d="M20.9168044,14.681374 C20.9168044,15.4561555 17.6406346,16.4090676 15.861312,16.4090676 L8.9402104,16.4090676 C6.87114616,16.4090676 3.85746963,15.4561555 3.85746963,14.681374 L3.85746963,1.91304348 L-3.90798505e-14,1.91304348 L-3.90798505e-14,15.6723334 C-3.90798505e-14,17.2218965 1.20165583,18.4177925 3.5759025,19.2358096 C5.29981994,19.8091134 7.11456549,20.0970623 8.9402104,20.0866858 L15.8467795,20.0866858 C21.7569643,20.0866858 24.7524752,18.6054349 24.7524752,15.6766569 L24.7524752,1.91736704 L20.8986387,1.91736704 L20.9168044,14.681374 Z" id="Fill-12" fill="#365394" mask="url(#mask-2)"></path>
                    <path d="M30.26407,2.71439443 C27.9170718,3.49368933 26.7326733,4.71928408 26.7326733,6.35052733 L26.7326733,15.6726587 C26.7326733,17.4102874 27.9352374,18.6531806 30.3085758,19.3892294 C32.047934,19.8839649 33.8581381,20.1174939 35.6737919,20.0837619 L51.4851485,20.0837619 L51.4851485,16.4182217 L35.6692505,16.4182217 C33.6528666,16.4182217 30.6936869,16.1838278 30.6936869,15.0646184 L30.6936869,7.31664542 C30.6936869,6.16716383 32.736411,5.57988166 35.6692505,5.57988166 L51.4806071,5.57988166 L51.4806071,1.9143414 L35.6692505,1.9143414 C33.8327063,1.89185343 32.0052448,2.16170915 30.26407,2.71439443" id="Fill-13" fill="#365394" mask="url(#mask-2)"></path>
                    <path d="M90.0252198,5.58382431 L102.131658,5.58382431 C106.233779,5.58382431 107.240738,6.15927676 107.240738,6.53829656 L107.240738,9.28921883 C107.240738,9.54103336 106.477724,10.0472584 102.315992,10.0472584 L90.0252198,10.0732187 L90.0252198,5.58382431 Z M102.09956,13.7111165 L104.771946,13.7111165 C106.160412,13.724962 107.532371,13.4333418 108.780524,12.8587547 C110.336817,12.1474435 111.13193,11.1246093 111.13193,9.82573088 L111.13193,6.35138268 C111.13193,4.4259967 109.980988,3.1141382 107.714871,2.45388224 C106.496065,2.09216928 104.618792,1.91304348 102.131658,1.91304348 L86.1386139,1.91304348 L86.1386139,20.0869565 L90.0206344,20.0869565 L90.0206344,13.6981364 L95.802855,13.7318847 L105.002134,20.0739764 L111.881188,20.0739764 L102.09956,13.7111165 Z" id="Fill-14" fill="#365394" mask="url(#mask-2)"></path>
                    <path d="M74.988441,12.847195 L68.7920989,4.43152379 L62.7863859,12.847195 L74.988441,12.847195 Z M53.4653465,20.0869565 L62.3170069,6.68470164 C62.7693012,5.95440897 63.2117044,5.29420363 63.6451156,4.70408563 C64.0353656,4.14684809 64.4966518,3.63893127 65.0172848,3.19244903 C65.5100428,2.77625143 66.0810307,2.45436888 66.6987766,2.24237634 C67.4109378,2.01134773 68.1599659,1.90059245 68.9116917,1.91443686 C69.63824,1.8988619 70.3620907,2.01394356 71.0445785,2.25535547 C71.637147,2.4785966 72.1820582,2.80480553 72.6514372,3.21754202 C73.1594815,3.6735423 73.6054815,4.19097715 73.9786468,4.75513689 C74.3949733,5.35996458 74.8337797,6.03314906 75.3067555,6.81189716 L84.1584158,20.0869565 L79.3702107,20.0869565 L76.4927917,16.1127454 L61.0032852,16.1127454 L58.4010194,20.0869565 L53.4653465,20.0869565 Z" id="Fill-15" fill="#365394" mask="url(#mask-2)"></path>
                    <polygon id="Fill-16" fill="#365394" mask="url(#mask-2)" points="127.722772 22 128.712871 22 128.712871 0 127.722772 0"></polygon>
                </g>
            </g>
        </g>
    </g>
</svg>