<?xml version="1.0" encoding="UTF-8"?>
<svg width="12px" height="20px" viewBox="0 0 12 20" version="1.1" xmlns="http://www.w3.org/2000/svg" xmlns:xlink="http://www.w3.org/1999/xlink">
    <!-- Generator: Sketch 60.1 (88133) - https://sketch.com -->
    <title>手机</title>
    <desc>Created with Sketch.</desc>
    <g id="页面-1" stroke="none" stroke-width="1" fill="none" fill-rule="evenodd">
        <g id="web首页1" transform="translate(-1152.000000, -40.000000)" fill="#365393">
            <g id="手机" transform="translate(1152.000000, 40.000000)">
                <path d="M10.2339231,15.0724444 C10.2339231,15.4608889 9.90669231,15.7764444 9.50284615,15.7764444 L2.193,15.7764444 C1.78961538,15.7764444 1.46192308,15.4608889 1.46192308,15.0724444 L1.46192308,3.80977778 C1.46192308,3.42088889 1.78961538,3.10577778 2.193,3.10577778 L9.50284615,3.10577778 C9.90669231,3.10577778 10.2339231,3.42088889 10.2339231,3.80977778 L10.2339231,15.0724444 Z M5.84792308,18.944 C5.24284615,18.944 4.75176923,18.4706667 4.75176923,17.888 C4.75176923,17.3053333 5.24284615,16.8324444 5.84792308,16.8324444 C6.45346154,16.8324444 6.94453846,17.3053333 6.94453846,17.888 C6.94453846,18.4706667 6.45346154,18.944 5.84792308,18.944 L5.84792308,18.944 Z M4.75176923,1.34577778 L6.94453846,1.34577778 C7.14669231,1.34577778 7.31007692,1.50355556 7.31007692,1.69777778 C7.31007692,1.892 7.14669231,2.04977778 6.94453846,2.04977778 L4.75176923,2.04977778 C4.55007692,2.04977778 4.38623077,1.892 4.38623077,1.69777778 C4.38623077,1.50355556 4.55007692,1.34577778 4.75176923,1.34577778 L4.75176923,1.34577778 Z M9.50284615,0.289777778 L2.193,0.289777778 C0.982384615,0.289777778 0.000230769231,1.236 0.000230769231,2.40177778 L0.000230769231,17.888 C0.000230769231,19.0537778 0.982384615,20 2.193,20 L9.50284615,20 C10.7134615,20 11.6960769,19.0537778 11.6960769,17.888 L11.6960769,2.40177778 C11.6960769,1.236 10.7134615,0.289777778 9.50284615,0.289777778 L9.50284615,0.289777778 Z" id="Fill-1"></path>
                <path d="M10.2339231,15.0724444 C10.2339231,15.4608889 9.90669231,15.7764444 9.50284615,15.7764444 L2.193,15.7764444 C1.78961538,15.7764444 1.46192308,15.4608889 1.46192308,15.0724444 L1.46192308,3.80977778 C1.46192308,3.42088889 1.78961538,3.10577778 2.193,3.10577778 L9.50284615,3.10577778 C9.90669231,3.10577778 10.2339231,3.42088889 10.2339231,3.80977778 L10.2339231,15.0724444 Z M5.84792308,18.944 C5.24284615,18.944 4.75176923,18.4706667 4.75176923,17.888 C4.75176923,17.3053333 5.24284615,16.8324444 5.84792308,16.8324444 C6.45346154,16.8324444 6.94453846,17.3053333 6.94453846,17.888 C6.94453846,18.4706667 6.45346154,18.944 5.84792308,18.944 L5.84792308,18.944 Z M4.75176923,1.34577778 L6.94453846,1.34577778 C7.14669231,1.34577778 7.31007692,1.50355556 7.31007692,1.69777778 C7.31007692,1.892 7.14669231,2.04977778 6.94453846,2.04977778 L4.75176923,2.04977778 C4.55007692,2.04977778 4.38623077,1.892 4.38623077,1.69777778 C4.38623077,1.50355556 4.55007692,1.34577778 4.75176923,1.34577778 L4.75176923,1.34577778 Z M9.50284615,0.289777778 L2.193,0.289777778 C0.982384615,0.289777778 0.000230769231,1.236 0.000230769231,2.40177778 L0.000230769231,17.888 C0.000230769231,19.0537778 0.982384615,20 2.193,20 L9.50284615,20 C10.7134615,20 11.6960769,19.0537778 11.6960769,17.888 L11.6960769,2.40177778 C11.6960769,1.236 10.7134615,0.289777778 9.50284615,0.289777778 L9.50284615,0.289777778 Z" id="Fill-3"></path>
            </g>
        </g>
    </g>
</svg>