<?xml version="1.0" encoding="UTF-8"?>
<svg width="17px" height="15px" viewBox="0 0 17 15" version="1.1" xmlns="http://www.w3.org/2000/svg" xmlns:xlink="http://www.w3.org/1999/xlink">
    <!-- Generator: Sketch 60.1 (88133) - https://sketch.com -->
    <title>消息</title>
    <desc>Created with Sketch.</desc>
    <g id="页面-1" stroke="none" stroke-width="1" fill="none" fill-rule="evenodd">
        <g id="web首页1" transform="translate(-1057.000000, -43.000000)" fill="#365393">
            <g id="消息" transform="translate(1057.000000, 41.000000)">
                <path d="M15.8281094,5.03806341 C15.3847454,4.26693324 14.9376953,3.73386311 14.6236397,3.44658515 C14.3983453,3.23826403 14.0517045,3.25952735 13.8498538,3.49238309 C13.6478555,3.72553621 13.6677605,4.07987544 13.8942344,4.28819656 C13.9467244,4.33518406 14.0494929,4.4412033 14.1872055,4.60595691 C14.424148,4.88728709 14.660943,5.22289079 14.8840257,5.61009152 C15.5212785,6.72128623 15.9040431,8.0207283 15.9040431,9.50023952 C15.9040431,10.9787099 15.5212785,12.2783006 14.8828462,13.3905362 C14.6599109,13.7778856 14.4217889,14.1133406 14.1858786,14.3945221 C14.0483133,14.5594244 13.9455449,14.6654437 13.8930548,14.7124312 C13.6677605,14.9207523 13.6478555,15.2762811 13.8486742,15.5082446 C14.0494929,15.7399108 14.3973132,15.7613228 14.6224601,15.5540426 C14.9363683,15.2669133 15.3834184,14.7347354 15.8270773,13.962713 C16.5600212,12.6854264 16.999997,11.1929788 16.999997,9.50023952 C17.001321,7.80764894 16.5612008,6.31401173 15.8281094,5.03806341 M12.4655024,5.73603584 C12.2589334,5.50764094 11.9112605,5.49589407 11.6905369,5.70897342 C11.4687812,5.92086322 11.4581652,6.27743286 11.6648817,6.5046382 C11.7663231,6.61764609 11.9414866,6.86730432 12.1212207,7.24275817 C12.4281991,7.88541622 12.613831,8.63870304 12.613831,9.50023952 C12.613831,10.3607351 12.4280516,11.1153602 12.1212207,11.7568287 C11.9414866,12.1334721 11.7663231,12.3817921 11.6648817,12.4948 C11.4569857,12.7220053 11.4687812,13.0787237 11.6905369,13.2906135 C11.9121452,13.5035441 12.2589334,13.4917972 12.4666819,13.2634023 C12.6383067,13.0750063 12.8752492,12.7361313 13.1062939,12.2534686 C13.4843402,11.4625621 13.709782,10.5408043 13.709782,9.49904996 C13.709782,8.45625477 13.4843402,7.53464566 13.1062939,6.74359042 C12.8740696,6.26211732 12.6371272,5.92324233 12.4655024,5.73603584 M8.77158879,2.10119645 L4.38631045,4.99330634 L2.20030626,4.99330634 C0.984041008,4.99330634 0,5.99253402 0,7.24379904 L0,11.7554904 C0,12.9997668 0.972392935,14.0061318 2.20030626,14.0061318 L4.38631045,14.0061318 L8.77158879,16.8960113 C9.39129577,17.1725833 9.87107843,16.8771271 9.87107843,16.2508255 L9.87107843,2.74623361 C9.87107843,2.11889111 9.37846815,1.83161315 8.77158879,2.10119645" id="Fill-1"></path>
            </g>
        </g>
    </g>
</svg>