<?xml version="1.0" encoding="UTF-8"?>
<svg width="17px" height="17px" viewBox="0 0 17 17" version="1.1" xmlns="http://www.w3.org/2000/svg" xmlns:xlink="http://www.w3.org/1999/xlink">
    <!-- Generator: Sketch 60.1 (88133) - https://sketch.com -->
    <title>通知</title>
    <desc>Created with Sketch.</desc>
    <g id="页面-1" stroke="none" stroke-width="1" fill="none" fill-rule="evenodd">
        <g id="web首页1" transform="translate(-1094.000000, -42.000000)" fill="#365393">
            <g id="通知" transform="translate(1094.000000, 41.000000)">
                <path d="M13.499777,11 C12.6718216,11 12,10.3286245 12,9.50022305 C12,8.67182156 12.6718216,8 13.499777,8 C14.3281784,8 15,8.67182156 15,9.50022305 C15,10.3286245 14.3281784,11 13.499777,11 M8.5,11 C7.67147531,11 7,10.3286245 7,9.50022305 C7,8.67182156 7.67147531,8 8.5,8 C9.32852469,8 10,8.67182156 10,9.50022305 C10,10.3286245 9.32852469,11 8.5,11 M3.50022305,11 C2.67137546,11 2,10.3286245 2,9.50022305 C2,8.67182156 2.67137546,8 3.50022305,8 C4.32862454,8 5,8.67182156 5,9.50022305 C5,10.3286245 4.32862454,11 3.50022305,11 M16.2902463,6.07063552 C15.851783,5.07493528 15.2245935,4.17330733 14.4436571,3.41624935 C13.6582466,2.65796966 12.7382059,2.05321921 11.7307167,1.63335542 C10.6837738,1.19638758 9.55751712,0.980957962 8.42312568,1.00131993 C7.28710728,1.00498508 6.16410449,1.24036944 5.12163576,1.69199789 C4.09584328,2.13833223 3.20224055,2.74348993 2.43635346,3.51887367 C1.66924616,4.2971081 1.05791939,5.2158401 0.635725661,6.22416476 C0.197669158,7.26751201 -0.0183085612,8.39067818 0.00121484838,9.52239637 C0.0170776187,10.5844766 0.238342928,11.633118 0.652808645,12.6108997 C1.04083641,13.5275955 1.57650996,14.3746534 2.2382722,15.1178652 C2.45343645,15.3548785 2.57830492,15.6049235 2.61775848,15.8655567 C2.65721203,16.1196741 2.54942654,16.3167779 2.29480874,16.4589044 C1.84251642,16.7248317 1.25315349,16.9113474 0.534447974,17.0245599 C0.42015468,17.0473653 0.686567874,17.1654647 1.33287408,17.375193 C1.97796007,17.5841068 2.96958659,17.7539256 4.31100752,17.8960522 C4.91786017,17.9473643 5.460855,17.9746493 5.94283918,17.9917534 C6.42360314,18.0027489 6.85962596,18.0027489 7.26188954,17.9917534 C7.6584588,17.9811652 8.02086209,17.9579525 8.34421856,17.9355544 C8.6671683,17.9131562 8.97344179,17.8789481 9.26141208,17.8394459 C10.3250312,17.7327492 11.3601786,17.4293558 12.3139785,16.9459627 C13.2389001,16.4784519 14.0731191,15.8496744 14.7775888,15.0889512 C15.4755507,14.3306715 16.0315611,13.4530707 16.4195889,12.4976872 C16.8202255,11.5023941 17.0174933,10.4366487 16.9987834,9.36316577 C16.9902419,8.22859691 16.7490464,7.10787418 16.2902463,6.07063552" id="Fill-1"></path>
            </g>
        </g>
    </g>
</svg>