<?xml version="1.0" encoding="UTF-8"?>
<svg width="16px" height="18px" viewBox="0 0 16 18" version="1.1" xmlns="http://www.w3.org/2000/svg" xmlns:xlink="http://www.w3.org/1999/xlink">
    <!-- Generator: Sketch 60.1 (88133) - https://sketch.com -->
    <title>单据</title>
    <desc>Created with Sketch.</desc>
    <g id="页面-1" stroke="none" stroke-width="1" fill="none" fill-rule="evenodd">
        <g id="web首页1" transform="translate(-1021.000000, -41.000000)" fill="#365393">
            <g id="单据" transform="translate(1021.000000, 41.000000)">
                <path d="M12,10 C14.209139,10 16,11.790861 16,14 C16,16.209139 14.209139,18 12,18 C9.790861,18 8,16.209139 8,14 C8,11.790861 9.790861,10 12,10 Z M12,0 C13.1045695,-2.02906125e-16 14,0.8954305 14,2 L14.0005324,9.41627634 C13.3879297,9.14853355 12.7113108,9 12,9 C9.23857625,9 7,11.2385763 7,14 C7,15.1261445 7.37230087,16.1653335 8.00053506,17.0011995 L2,17 C0.8954305,17 1.3527075e-16,16.1045695 0,15 L0,2 C-1.3527075e-16,0.8954305 0.8954305,2.02906125e-16 2,0 L12,0 Z M11.5,12 C11.2545401,12 11.0503916,12.1768752 11.0080557,12.4101244 L11,12.5 L11,14.5 C11,14.7454599 11.1768752,14.9496084 11.4101244,14.9919443 L11.5,15 L13.5,15 C13.7761424,15 14,14.7761424 14,14.5 C14,14.2545401 13.8231248,14.0503916 13.5898756,14.0080557 L13.5,14 L12,14 L12,12.5 C12,12.2238576 11.7761424,12 11.5,12 Z M5.5,11 L3.5,11 C3.22385763,11 3,11.2238576 3,11.5 C3,11.7454599 3.17687516,11.9496084 3.41012437,11.9919443 L3.5,12 L5.5,12 C5.77614237,12 6,11.7761424 6,11.5 C6,11.2238576 5.77614237,11 5.5,11 Z M8.5,7 L3.5,7 C3.22385763,7 3,7.22385763 3,7.5 C3,7.74545989 3.17687516,7.94960837 3.41012437,7.99194433 L3.5,8 L8.5,8 C8.77614237,8 9,7.77614237 9,7.5 C9,7.22385763 8.77614237,7 8.5,7 Z M10.5,3 L3.5,3 C3.22385763,3 3,3.22385763 3,3.5 C3,3.74545989 3.17687516,3.94960837 3.41012437,3.99194433 L3.5,4 L10.5,4 C10.7761424,4 11,3.77614237 11,3.5 C11,3.22385763 10.7761424,3 10.5,3 Z" id="形状结合"></path>
            </g>
        </g>
    </g>
</svg>