<?xml version="1.0" encoding="UTF-8"?>
<svg width="18px" height="18px" viewBox="0 0 18 18" version="1.1" xmlns="http://www.w3.org/2000/svg" xmlns:xlink="http://www.w3.org/1999/xlink">
    <!-- Generator: Sketch 60.1 (88133) - https://sketch.com -->
    <title>神操作 2</title>
    <desc>Created with Sketch.</desc>
    <g id="页面-1" stroke="none" stroke-width="1" fill="none" fill-rule="evenodd">
        <g id="web首页二级目录无" transform="translate(-46.000000, -1086.000000)" fill="#365393">
            <g id="神操作-2" transform="translate(46.000000, 1086.000000)">
                <path d="M2,15 L2,18 L0,18 L0,15 L2,15 Z M10,12 L10,18 L8,18 L8,12 L10,12 Z M14,11 L14,18 L12,18 L12,11 L14,11 Z M6,9 L6,18 L4,18 L4,9 L6,9 Z M18,7 L18,18 L16,18 L16,7 L18,7 Z M18,0 L18,4.28410963 L16.4402414,2.63841833 L11.1538434,8.73596626 L7.01636264,4.21596736 L1.17693205,9.80632173 C1.04732675,9.93138099 0.878165606,10.0004719 0.702711491,10 C0.411586516,9.99762603 0.151626747,9.80758655 0.0471933416,9.52094631 C-0.0572400641,9.23430606 0.0151291396,8.90940495 0.229839427,8.70197417 L0.229839427,8.70197417 L7.08228904,2.14071094 L11.1268735,6.55984031 L15.4233267,1.60079013 L15.440108,1.58308262 L13.939833,0 L18,0 Z" id="形状结合"></path>
            </g>
        </g>
    </g>
</svg>