<?xml version="1.0" encoding="UTF-8"?>
<svg width="18px" height="17px" viewBox="0 0 18 17" version="1.1" xmlns="http://www.w3.org/2000/svg" xmlns:xlink="http://www.w3.org/1999/xlink">
    <!-- Generator: Sketch 60.1 (88133) - https://sketch.com -->
    <title>神行者</title>
    <desc>Created with Sketch.</desc>
    <g id="页面-1" stroke="none" stroke-width="1" fill="none" fill-rule="evenodd">
        <g id="web首页1" transform="translate(-46.000000, -1291.000000)" fill="#365393">
            <g id="神行者" transform="translate(46.000000, 1290.000000)">
                <path d="M17.7416424,8.72226516 C17.98733,8.44417103 18.0639079,8.0797232 17.944964,7.74770207 C17.8256654,7.40616441 17.5636696,7.17195205 17.2059513,7.08806561 L12.798997,6.16478604 C12.6279374,6.12513384 12.5070435,6.0407187 12.4228433,5.90255279 L10.1705299,2.03566975 C9.98635286,1.72162428 9.67295053,1.54186762 9.30885076,1.54186762 C8.9344697,1.54186762 8.61096333,1.72973096 8.44699435,2.03619844 L6.17837273,5.90766352 C6.10463101,6.04300972 5.99100494,6.12478137 5.824377,6.16408112 L1.40696407,7.08824184 C1.04055987,7.17477177 0.771650749,7.41867689 0.672205779,7.74717338 C0.550248311,8.09435046 0.628244366,8.4605606 0.877477214,8.72349878 L3.89822897,12.0576324 C4.00476449,12.1623142 4.05298024,12.3017138 4.03294943,12.4550356 L3.56727753,16.8936154 C3.51675736,17.2617641 3.66229091,17.5948426 3.96080308,17.8026201 C4.24921122,18.0199142 4.62571945,18.0579803 4.96322965,17.9078307 L9.0787624,16.1011 C9.23404545,16.0337793 9.37603373,16.032017 9.52475802,16.1005713 L13.649863,17.9053634 C13.7831654,17.9675733 13.9230265,18 14.0662556,18 C14.2713498,18 14.4748486,17.9333843 14.6501624,17.8068497 C14.9392796,17.6043591 15.0848132,17.2751577 15.0507785,16.9010171 L14.5845748,12.4502774 C14.5663167,12.3038286 14.6141779,12.1570273 14.71575,12.0493495 L17.7416424,8.72226516 Z M0.296761132,15.9148227 C0.176753566,15.9148227 0.0682681436,15.8425676 0.0225340931,15.7320701 C-0.0233772211,15.6217489 0.00214876058,15.4948618 0.0874126298,15.4102704 L0.764914726,14.7414699 C0.839365506,14.6633991 0.950509884,14.6318536 1.05527277,14.6591695 C1.15985839,14.686133 1.24139972,14.7677285 1.26816654,14.8718816 C1.29493337,14.9758585 1.26267137,15.086356 1.18378899,15.160021 L0.506641425,15.8291739 C0.450803341,15.8841583 0.375288978,15.9148227 0.296761132,15.9148227 L0.296761132,15.9148227 Z M1.82459749,14.4297154 C1.7042354,14.4295392 1.59592724,14.3574603 1.55019319,14.2469628 C1.50428187,14.1364654 1.52980786,14.0094021 1.61489446,13.9249869 L2.7554095,12.797102 C2.82986028,12.7192074 2.94118192,12.6874857 3.04594481,12.7144492 C3.15053043,12.7417651 3.23207176,12.8233606 3.25883858,12.9273375 C3.28560541,13.0316668 3.25334341,13.1419881 3.17446103,13.215653 L2.03430052,14.3438905 C1.97846244,14.3988748 1.90294807,14.4297154 1.82459749,14.4297154 L1.82459749,14.4297154 Z M15.7304078,5.37844181 C15.6102229,5.37773383 15.5020921,5.30530247 15.4565353,5.19445253 C15.4111557,5.08377882 15.4370363,4.95671553 15.5223001,4.87247662 L16.3641257,4.05105916 C16.4823607,3.94144284 16.6668922,3.94531995 16.7799865,4.06004699 C16.8932581,4.17459781 16.8937898,4.35823158 16.7812274,4.47348732 L15.9390472,5.29490478 C15.8830319,5.34865555 15.8080493,5.37879122 15.7300533,5.37844181 L15.7304078,5.37844181 Z M9.81473996,13.076179 C9.96944455,13.095716 10.0574282,13.1424518 9.9575301,13.2876389 C9.59753031,13.8118834 9.23881362,14.3370856 8.86799918,14.8530939 C8.73657359,15.0363975 8.53751057,15.0385044 8.37382431,14.9128543 C8.22040282,14.7946742 8.1736615,14.6257361 8.29518892,14.4332386 C8.50140061,14.1072378 8.69203187,13.7710854 8.89916005,13.4460424 C8.9387527,13.3839835 8.99979136,13.3293946 9.07329437,13.2862982 C9.31231663,13.1453249 9.60596208,13.2355401 9.81473996,13.076179 Z M11.0408329,7.21912099 C11.2895132,7.46971603 11.339808,7.89605555 11.1566159,8.22111532 C10.9973488,8.50354113 10.6693842,8.71728963 10.1241737,8.4877222 C10.2780271,8.76204564 10.4715227,8.94743581 10.5548236,9.21057024 C10.619264,9.41428722 10.7018663,9.64192552 10.8429714,9.7785085 C11.0064298,9.93669782 11.2042913,9.69671304 11.397263,9.70905952 C11.6019352,9.72198475 11.8467735,9.57131906 11.9740824,9.88924102 C12.0390467,10.0516744 11.9787976,10.3018837 11.8279129,10.3460609 C11.4297451,10.4625809 11.0291323,10.5785221 10.615422,10.614404 C10.4581195,10.6281491 10.3780275,10.5254587 10.3118599,10.4079019 L10.2479899,10.2891513 C10.0523987,9.93245372 10.0546689,9.93110332 9.79743156,10.2052338 C9.34006245,10.6929199 9.33691902,10.6952349 9.70015986,11.2525629 C9.85488648,11.4898469 10.0272512,11.7138198 10.1875662,11.9470526 C10.3597563,12.1988051 10.2256366,12.5105539 9.93958447,12.5757587 C9.38127631,12.7032748 8.82611159,12.8448735 8.27094687,12.9882084 C8.06086095,13.0424172 7.81654656,12.904098 7.77515806,12.6886133 C7.73988178,12.5059239 7.90788067,12.2977699 8.11290218,12.2522423 C8.39336602,12.1895453 8.66981325,12.107364 8.95097563,12.0500686 C9.16106156,12.0072417 9.08265043,11.9163793 8.99341194,11.8262886 C8.70491489,11.53441 8.40768609,11.25237 8.12355492,10.9556686 C7.89286206,10.7147192 7.88378104,10.4261202 8.07640346,10.146588 C8.33853062,9.7659691 8.67365522,9.46270859 8.98747435,9.13687717 C9.12613455,8.99296347 9.15320298,8.90615225 8.9652957,8.76320312 C8.67732256,8.54405303 8.40978171,8.54694674 8.11464853,8.72056917 C7.9384418,8.82416388 7.75332868,8.91020344 7.56943801,8.99778631 C7.35481157,9.10003063 7.13739097,9.04485728 7.05129591,8.87277816 C6.94564172,8.66211628 6.99908004,8.47306075 7.25003056,8.34072188 C7.65693015,8.1258159 8.07378394,7.93251626 8.49238407,7.74558278 C8.65042877,7.67478341 8.77965868,7.82139791 8.91552472,7.87985079 C9.25658691,8.02704403 9.57756607,8.22825313 9.96525581,8.36117074 C9.72391022,7.71162995 9.77437974,7.3840623 10.1313337,7.12806568 C10.4104005,6.92762823 10.7895331,6.96582516 11.0408329,7.21912099 Z M7.67472086,11.6446104 C7.91172683,11.6350334 8.02702208,11.7965014 8.15551487,11.9351763 C8.26311155,12.0512494 8.14378372,12.0640826 8.06203224,12.0648487 L7.60742711,12.0661895 L7.60742711,12.0661895 L7.15268451,12.0658064 C6.87626919,12.0673387 6.59948728,12.0629333 6.32325526,12.0694457 C6.16415149,12.0730849 6.01219638,12.0317123 6.00651411,11.8600927 C6.00028193,11.6823437 6.14857105,11.6440357 6.31042431,11.6469088 C6.76518983,11.6545704 7.22050524,11.6631897 7.67472086,11.6446104 Z M7.28649298,10.8192653 C7.42561714,10.8365039 7.45861101,10.9657932 7.45604482,11.0933588 C7.45201223,11.26766 7.31563757,11.1964072 7.23498588,11.2025365 L6.99429102,11.208546 L6.99429102,11.208546 L6.75290878,11.2057926 C6.57419198,11.2046434 6.39510858,11.2000464 6.21675838,11.2061757 C6.09431446,11.2105811 6.03070961,11.1351144 6.00596421,11.0370461 C5.97388683,10.911779 6.07745093,10.8357377 6.16726758,10.822713 C6.53899852,10.7694649 6.91421214,10.7734873 7.28649298,10.8192653 Z M6.29466058,10.0000495 C6.84437512,10.0046464 7.39408966,10.0019649 7.98504654,10.0019649 C7.75720554,10.3411819 7.50333603,10.461852 7.15653379,10.4231609 C6.8742529,10.3919399 6.58592313,10.4151163 6.30052615,10.4162655 C6.14930425,10.4166486 6.01641227,10.3597612 6.01072999,10.200017 C6.00449781,10.0236089 6.14527166,9.99870868 6.29466058,10.0000495 Z M16.1198563,1.00964691 C16.2235556,1.03678664 16.3043878,1.11714845 16.3316865,1.22006795 C16.3589851,1.32316368 16.3284957,1.43260377 16.2519178,1.50697368 L13.6711347,4.07537918 C13.6154738,4.13071604 13.5399595,4.16173287 13.4614316,4.16173287 C13.3414241,4.1619091 13.2331159,4.09000644 13.1872046,3.97986142 C13.141116,3.86971641 13.1662875,3.74282935 13.2508423,3.65823798 L15.8314481,1.08948002 C15.9060762,1.01317155 16.0163342,0.982683412 16.1198563,1.00964691 Z" id="Fill-1"></path>
            </g>
        </g>
    </g>
</svg>