<?xml version="1.0" encoding="UTF-8"?>
<svg width="18px" height="18px" viewBox="0 0 18 18" version="1.1" xmlns="http://www.w3.org/2000/svg" xmlns:xlink="http://www.w3.org/1999/xlink">
    <!-- Generator: Sketch 60.1 (88133) - https://sketch.com -->
    <title>狮之道</title>
    <desc>Created with Sketch.</desc>
    <g id="页面-1" stroke="none" stroke-width="1" fill="none" fill-rule="evenodd">
        <g id="web首页1" transform="translate(-46.000000, -1392.000000)" fill="#365393">
            <g id="狮之道" transform="translate(46.000000, 1392.000000)">
                <path d="M7,13.0001263 C7,13.7146737 7.38109679,14.3746447 7.99974728,14.7324237 C8.61839778,15.0891921 9.38059136,15.0891921 10.0002527,14.7324237 C10.6189032,14.3746447 11,13.7146737 11,13.0001263 C11,11.8954583 10.104372,11 9.00050543,11 C7.895628,11 7,11.8954583 7,13.0001263" id="Fill-1"></path>
                <path d="M8.58609958,7.0849 C7.20535172,7.0849 6.08609958,5.96564785 6.08609958,4.5849 C6.08609958,3.20415215 7.20535172,2.0849 8.58609958,2.0849 C9.96684743,2.0849 11.0860996,3.20415215 11.0860996,4.5849 C11.0860996,5.96564785 9.96684743,7.0849 8.58609958,7.0849 M8.75355207,0.0849 C8.60260869,0.0849 8.45402379,0.0939955028 8.30661814,0.106501819 C8.25473136,0.112186508 8.2063823,0.120145073 8.156854,0.1269667 C8.06133514,0.138336079 7.96699553,0.150842395 7.87265591,0.169033401 C7.81369365,0.179265841 7.75473139,0.192909096 7.69458989,0.207689288 C7.61440121,0.225880293 7.53421254,0.244071299 7.45520311,0.267946993 C7.39152387,0.285001061 7.32902387,0.304329005 7.26534463,0.324793886 C7.19458992,0.348669581 7.12501445,0.372545275 7.05543899,0.399831784 C6.98940126,0.423707479 6.92572202,0.448720111 6.86204278,0.47600662 C6.79954278,0.503293128 6.73822203,0.532853512 6.67808052,0.562413896 C6.61204279,0.595385093 6.54364657,0.626082415 6.47996733,0.659053613 C6.42925979,0.688613997 6.37855224,0.719311319 6.32902395,0.748871703 C6.15213717,0.853469985 5.97996737,0.966026832 5.81723153,1.09222693 C4.76298632,1.91878075 4.08609958,3.17623401 4.08609958,4.58831081 C4.08609958,5.5763098 4.42100521,6.48586008 4.97996744,7.22714356 C5.08138252,7.36130222 5.18987308,7.48863926 5.30661836,7.61256549 C5.31487307,7.62052405 5.32430704,7.63189343 5.333741,7.64098893 C5.5059108,7.81948818 5.69341078,7.98775498 5.89388247,8.13783077 C5.92808058,8.16170647 5.9599202,8.18444522 5.99175982,8.20718398 C6.0825617,8.27312638 6.17572207,8.33338408 6.27242018,8.39364179 C6.32312772,8.42547605 6.37619375,8.45731031 6.42925979,8.48573375 C6.48232582,8.51643108 6.53303336,8.54371758 6.58845789,8.57100409 C6.68279751,8.62102936 6.7818541,8.664233 6.8809107,8.7062997 C6.92454277,8.72676458 6.96935409,8.74268171 7.01298616,8.75973578 C7.11558049,8.7995286 7.21817483,8.83818449 7.32430689,8.86888181 C7.35378802,8.87797731 7.3844484,8.88707281 7.41275028,8.89503138 C7.52477858,8.92800258 7.64034461,8.95528909 7.75473139,8.98030172 C7.78539177,8.98712335 7.81723139,8.99394497 7.84789176,8.99962966 C7.97760873,9.02464229 8.10850495,9.0428333 8.24058041,9.05761349 C8.26770305,9.06102431 8.29718418,9.06329818 8.32430682,9.06443512 C8.464637,9.07694144 8.60732567,9.0849 8.75237283,9.0849 C11.3302028,9.0849 13.4186461,11.0995539 13.4186461,13.5849 C13.4186461,16.0679723 11.3302028,18.0849 8.75237283,18.0849 C13.9056743,18.0849 18.0860996,14.0555923 18.0860996,9.0849 C18.0884571,4.11420773 13.9092121,0.0849 8.75355207,0.0849" id="Fill-3"></path>
                <path d="M6.81509958,8.7184 C6.65509958,8.6404 6.50409958,8.5504 6.35709958,8.4514 C6.38809958,8.4734 6.42009958,8.4934 6.45309958,8.5134 C6.49009958,8.5364 6.53809958,8.5664 6.58609958,8.5944 C6.62909958,8.6184 6.67509958,8.6454 6.72009958,8.6694 C6.75209958,8.6874 6.78409958,8.7024 6.81509958,8.7184 M9.42613336,18.0849 C8.16447796,18.0849 6.94066039,17.8463609 5.79015363,17.3761307 C4.67630228,16.9207379 3.67951174,16.2713181 2.82106579,15.44385 C1.96261985,14.6140992 1.28863336,13.6508121 0.818025253,12.5768155 C0.333227955,11.4651549 0.086099577,10.2850141 0.086099577,9.06949197 C0.086099577,7.85396981 0.333227955,6.67154638 0.819207685,5.55988573 C1.28981579,4.48588916 1.96380228,3.52260211 2.82224823,2.69399264 C3.68069417,1.86538317 4.67866714,1.21482201 5.79133606,0.760570535 C6.70180904,0.389636542 7.65484958,0.16365214 8.63745093,0.0849 C8.60670769,0.0894653414 8.57359958,0.0940306829 8.54049147,0.0997373597 C8.48846444,0.108868043 8.43761985,0.121422732 8.38559282,0.132836085 L8.35957931,0.138542762 C8.26734958,0.160228134 8.19049147,0.179630835 8.12072796,0.199033536 C8.05805904,0.217294902 7.99420769,0.235556268 7.9291739,0.25724164 C7.86414012,0.277785676 7.7943766,0.302895054 7.7175185,0.331428438 C7.64775498,0.358820487 7.58508606,0.380505859 7.52123471,0.410180578 C7.46329552,0.434148621 7.40653877,0.462682005 7.34978201,0.488932718 L7.29657255,0.515183432 C7.24336309,0.54029281 7.18778877,0.566543523 7.13694417,0.595076907 C7.10028877,0.613338273 7.06599823,0.635023645 7.03052525,0.655567681 C7.0139712,0.664698364 6.99978201,0.676111718 6.98322796,0.685242401 C6.7881266,0.799375937 6.6202212,0.912368138 6.47241714,1.02992568 C2.89201174,2.19066374 0.488126604,5.42178415 0.488126604,9.06949197 C0.488126604,13.7478256 4.43153877,17.5541791 9.27832931,17.5541791 C11.708228,17.5541791 13.6840725,15.6470077 13.6840725,13.3038462 C13.6840725,11.2871066 12.2225861,9.59450624 10.2692077,9.15965747 C11.1938698,9.32172709 12.0428563,9.74972785 12.7203901,10.403713 C13.6013023,11.2540079 14.0860996,12.3827885 14.0860996,13.585756 C14.0860996,14.7864408 13.6013023,15.9163628 12.7203901,16.7666577 C11.8418428,17.6169525 10.6700523,18.0849 9.42613336,18.0849" id="Fill-5"></path>
                <path d="M9.41982599,0.0849 C4.26534486,0.0849 0.086099577,4.11446225 0.086099577,9.0843315 C0.086099577,14.0553377 4.26534486,18.0849 9.41982599,18.0849 C11.9976562,18.0849 14.0860996,16.0689819 14.0860996,13.5846157 C14.0860996,11.1002496 11.9976562,9.0854685 9.41982599,9.0854685 C9.27477882,9.0854685 9.13326939,9.07637243 8.9929392,9.06386532 C8.96463731,9.06272831 8.93633543,9.05931728 8.90803354,9.05818027 C8.77477882,9.04339915 8.6438826,9.02406998 8.51534486,9.00019278 C8.48468448,8.99450773 8.45402411,8.98654866 8.42336373,8.97972661 C8.30779769,8.9558494 8.19223165,8.92742416 8.0813826,8.89558789 C8.05190146,8.88649181 8.02124109,8.87739574 7.99175995,8.86943667 C7.88562788,8.83532638 7.78421278,8.79894207 7.68161844,8.76028374 C7.63798637,8.74209159 7.5919958,8.72503644 7.54836373,8.70684429 C7.45048637,8.66477493 7.35142977,8.61929454 7.2559109,8.57154014 C7.20402411,8.54538891 7.15095807,8.51582666 7.09789203,8.48626441 C7.04482599,8.45556515 6.99175995,8.4260029 6.93987316,8.39416663 C6.84317505,8.33617914 6.75001467,8.2736436 6.65921278,8.20769704 C6.62619392,8.18495685 6.59435429,8.16221666 6.56251467,8.13720244 C6.36204297,7.98484315 6.17336373,7.81997675 6.00237316,7.64146623 C5.9929392,7.63237015 5.98350524,7.62100006 5.97525052,7.61190398 C5.85968448,7.48910694 5.75001467,7.36062484 5.64742033,7.2264577 C6.43515618,8.35096026 7.76534486,9.08774252 9.27477882,9.08774252 C11.6922317,9.08774252 13.6497788,10.9740416 13.6497788,13.3049114 C13.6497788,15.6346442 11.6922317,17.5232172 9.27477882,17.5232172 C4.44105241,17.5209432 0.524778822,13.7437971 0.524778822,9.0843315 C0.524778822,5.36630989 3.02006184,2.21224508 6.48350524,1.08887953 C6.6438826,0.963808471 6.81605241,0.851244514 6.99529769,0.745502615 C7.04600524,0.715940364 7.09553354,0.682967084 7.14624109,0.655678852 C7.20992033,0.620431552 7.27831656,0.589732291 7.34435429,0.55903303 C7.40567505,0.529470779 7.46581656,0.498771518 7.52831656,0.472620296 C7.5919958,0.444195054 7.65567505,0.420317851 7.72171278,0.394166629 C7.79128826,0.369152416 7.86086373,0.345275213 7.93161844,0.32139801 C7.99411844,0.299794827 8.05779769,0.282739682 8.12147694,0.263410517 C8.20048637,0.242944343 8.28067505,0.222478169 8.36086373,0.203149005 C8.42100524,0.189504889 8.4799675,0.176997783 8.53892977,0.164490677 C8.63326939,0.147435532 8.72760901,0.134928425 8.82312788,0.122421319 C8.87383543,0.114462251 8.92336373,0.108777203 8.97289203,0.103092155 C9.12029769,0.0939960773 9.27006184,0.0849 9.41982599,0.0849 M8.29970168,0.0849 C8.23211465,0.100942781 8.17401353,0.114693736 8.11946961,0.130736516 C8.05662554,0.149071123 7.99259572,0.16740573 7.92738017,0.189178075 C7.86216462,0.209804507 7.79220612,0.236160504 7.7151332,0.264808327 C7.6451747,0.292310237 7.58233063,0.315228495 7.51830081,0.342730405 C7.45901395,0.367940489 7.40091282,0.396588312 7.34636891,0.424090222 L7.33095432,0.430965699 C7.31791121,0.436695264 7.30605384,0.442424828 7.29301073,0.449300306 C7.23965255,0.475656303 7.18510864,0.500866387 7.13175046,0.530660122 C7.09380687,0.548994729 7.05942049,0.570767074 7.02503411,0.591393506 C7.00843379,0.60056081 6.9930192,0.612019939 6.97641888,0.621187242 C6.78077223,0.735778533 6.61358327,0.849223911 6.46536611,0.963815202 C2.86665349,2.1349382 0.452492395,5.38589312 0.452492395,9.05281444 C0.452492395,13.7602247 4.4164121,17.5910115 9.28623509,17.5910115 C11.7312253,17.5910115 13.7208925,15.6681697 13.7208925,13.3052972 C13.7208925,11.5211108 12.5885134,9.98902529 10.9830251,9.34387632 C11.0707697,9.37367005 11.1585142,9.40575561 11.2450731,9.44127892 C11.7999981,9.66816967 12.296822,9.99246303 12.7248732,10.4049917 C13.1517386,10.8175203 13.488488,11.2988037 13.7208925,11.8339451 C13.9639686,12.3897128 14.0860996,12.9787121 14.0860996,13.5849 C14.0860996,14.1910879 13.9639686,14.7812331 13.7208925,15.3358549 C13.4861165,15.8721422 13.1505529,16.3522797 12.7248732,16.7659542 C12.296822,17.1796288 11.7999981,17.5039222 11.2450731,17.7308129 C10.6699905,17.9645791 10.0605215,18.0849 9.43326651,18.0849 C8.17164205,18.0849 6.94796118,17.8454042 5.79423882,17.374434 C4.68201725,16.9183607 3.68125499,16.2674821 2.82278121,15.4389871 C1.96549316,14.6127839 1.28962291,13.6456334 0.82007095,12.5696212 C0.331547193,11.4569397 0.086099577,10.2720658 0.086099577,9.05281444 C0.086099577,7.83470901 0.331547193,6.64983506 0.82007095,5.53715363 C1.29199439,4.46114141 1.96549316,3.49399091 2.82278121,2.66434996 C3.68125499,1.83585493 4.68201725,1.18497639 5.79423882,0.727757143 C6.59816869,0.40002605 7.43767068,0.184594423 8.29970168,0.0849" id="Fill-7"></path>
            </g>
        </g>
    </g>
</svg>