<?xml version="1.0" encoding="UTF-8"?>
<svg width="18px" height="18px" viewBox="0 0 18 18" version="1.1" xmlns="http://www.w3.org/2000/svg" xmlns:xlink="http://www.w3.org/1999/xlink">
    <!-- Generator: Sketch 60.1 (88133) - https://sketch.com -->
    <title>狮之规</title>
    <desc>Created with Sketch.</desc>
    <g id="页面-1" stroke="none" stroke-width="1" fill="none" fill-rule="evenodd">
        <g id="web首页1" transform="translate(-46.000000, -1188.000000)" fill="#365393">
            <g id="狮之规" transform="translate(46.000000, 1188.000000)">
                <path d="M4.91337778,9.0259 L4.44139167,9.52565 L5.73882222,10.89915 C5.770225,10.9324 5.78769722,10.9774 5.78769722,11.02415 C5.78769722,11.07115 5.770225,11.1159 5.73882222,11.14915 C5.67365556,11.2184 5.56811389,11.2184 5.50294722,11.14915 L4.20551667,9.7754 L3.49765556,10.5249 L5.73882222,12.89765 C5.80398889,12.96715 5.80398889,13.07865 5.73882222,13.14765 C5.67365556,13.2169 5.56811389,13.2169 5.50294722,13.14765 L3.26154444,10.7749 L2.78979444,11.2744 L4.08698889,12.64815 C4.11839167,12.68115 4.1361,12.72615 4.1361,12.7729 C4.1361,12.8199 4.11839167,12.86465 4.08698889,12.89765 C4.02182222,12.96715 3.91651667,12.96715 3.85111389,12.89765 L2.55391944,11.52415 L1.84605833,12.27365 L4.087225,14.64665 C4.11862778,14.67965 4.1361,14.72465 4.1361,14.7714 C4.1361,14.8184 4.11862778,14.8634 4.087225,14.8964 C4.02205833,14.96565 3.91651667,14.96565 3.85135,14.8964 L1.61065556,12.52315 L0.195405556,14.02165 C-0.065025,14.2979 -0.065025,14.7449 0.195405556,15.0209 L2.79026667,17.7689 C3.05093333,18.04465 3.47333611,18.04465 3.73400278,17.7689 L7.41025278,13.87565 L5.47768333,9.6239 L4.91337778,9.0259 Z M12.1088639,4.15515 L10.8116694,2.7814 L10.3396833,3.28115 L12.58085,5.65415 C12.6122528,5.68715 12.629725,5.73215 12.629725,5.77915 C12.629725,5.8259 12.6122528,5.8709 12.58085,5.9039 C12.5570028,5.92915 12.527725,5.9419 12.4970306,5.94865 L14.1212389,6.7709 L16.7092528,4.03065 C16.9694472,3.75465 16.9694472,3.3074 16.7092528,3.0314 L14.1139194,0.28365 C13.8534889,0.0079 13.4310861,0.0079 13.1701833,0.28365 L11.9905722,1.5329 L14.2315028,3.9059 C14.2971417,3.9749 14.2971417,4.0864 14.2315028,4.15565 C14.2003361,4.18865 14.1580722,4.2074 14.1136833,4.2074 C14.0695306,4.2074 14.0270306,4.18865 13.9956278,4.15565 L11.7544611,1.78265 L11.0468361,2.53215 L12.3440306,3.90565 C12.3884194,3.94965 12.4066,4.01565 12.3914889,4.0779 C12.3766139,4.1404 12.3308083,4.1889 12.2720167,4.20515 C12.213225,4.22115 12.1506556,4.20215 12.1088639,4.15515 L12.1088639,4.15515 Z M9.39571111,4.28015 L9.57491944,4.4699 L12.2866556,5.84215 L10.1033361,3.53065 L9.39571111,4.28015 Z M9.04201667,9.40065 L8.65101667,8.9869 L9.69651667,11.4554 L11.8533917,9.1714 L7.94103056,7.31115 L8.26733611,8.08115 L9.27765556,9.1509 C9.34305833,9.22015 9.34305833,9.33165 9.27765556,9.40065 C9.21248889,9.4694 9.10718333,9.4694 9.04201667,9.40065 L9.04201667,9.40065 Z" id="Fill-1"></path>
                <path d="M16.7356735,9.47950334 L16.638561,9.1848629 C16.4402495,8.38377127 15.9075729,8.0633832 15.9075729,8.0633832 L13.9672454,7.12626631 L10.9949771,5.69071399 L10.2113463,5.31202938 L9.09190808,4.77132896 L7.97487364,4.23184306 C8.08352429,4.01711746 7.89771245,3.794619 7.89771245,3.794619 L5.06606502,0.932744653 L4.15984168,1.84848615 L2.58825332,0.260148313 C2.38345165,0.0534384957 2.20437038,0 2.07432613,0 C1.93418603,0 1.85029427,0.0619400746 1.85029427,0.0619400746 L1.55414913,0.360466944 L1.32771349,0.589523769 L1.10103747,0.818337691 C1.10103747,0.818337691 0.803930828,1.20503808 1.22867794,1.63400346 L2.80026631,3.22209839 L1.89404298,4.13808279 L4.72593079,6.99971423 C4.72593079,6.99971423 4.8639075,7.082301 5.02135479,7.082301 C5.07784351,7.082301 5.13721677,7.0716133 5.19322473,7.04246503 L5.72974741,8.16928858 L6.52467594,9.83875577 L6.97009552,10.7741723 L8.07054391,13.0846586 L9.00224726,15.0409933 C9.00224726,15.0409933 9.32795883,15.5700344 10.120724,15.7704288 L10.4635023,15.8845929 L11.1702123,16.6431766 C11.3894366,16.878306 11.5406341,17 11.6007285,17 C11.6473617,17 11.6384678,16.9259148 11.5622681,16.773858 L11.2478542,16.1461986 L11.4728476,16.2212554 L9.45872421,11.6818981 L7.62632621,7.55377427 L7.2357127,6.67373941 L7.22753987,6.65552174 L7.19004097,6.57026305 L7.54195369,6.21441125 L7.62632621,6.252304 L7.9046834,6.37885607 L8.77653275,6.77430094 L12.5980549,8.50886593 L17.0885478,10.5468158 L16.9782145,10.2128252 L17.7245867,10.5764499 C17.7245867,10.5764499 18.1281806,10.3833426 17.9582337,10.0969609 L16.7356735,9.47950334 Z" id="Fill-3"></path>
            </g>
        </g>
    </g>
</svg>