<?xml version="1.0" encoding="UTF-8"?>
<svg width="14px" height="18px" viewBox="0 0 14 18" version="1.1" xmlns="http://www.w3.org/2000/svg" xmlns:xlink="http://www.w3.org/1999/xlink">
    <!-- Generator: Sketch 60.1 (88133) - https://sketch.com -->
    <title>沃时代</title>
    <desc>Created with Sketch.</desc>
    <g id="页面-1" stroke="none" stroke-width="1" fill="none" fill-rule="evenodd">
        <g id="web首页1" transform="translate(-48.000000, -1239.000000)" fill="#365393">
            <g id="沃时代" transform="translate(46.000000, 1239.000000)">
                <path d="M8.76818341,0.00047837525 C9.05677228,0.0209306148 9.25967877,0.174264636 9.45207135,0.358103693 C9.77268536,0.664540638 10.0930577,0.981261477 10.3816465,1.31843456 C11.1509752,2.20724035 11.9095482,3.0961617 12.6468516,4.00530419 C13.4269359,4.97591895 14.1214586,6.00777487 14.7518101,7.08041973 C14.9654722,7.44821339 15.1686204,7.80583871 15.3395018,8.19408461 C15.585189,8.75600122 15.54265,9.31780229 15.2540611,9.86955056 C14.5809288,11.1772228 13.7688194,12.4134856 12.9032945,13.6087284 C11.8989134,14.9880413 10.8198472,16.3059974 9.61231793,17.521808 C9.47346173,17.6647425 9.31321515,17.7975088 9.14221295,17.8894861 C8.8003294,18.0733251 8.45832501,18.0223679 8.18049176,17.7770565 C7.88138897,17.521808 7.59292096,17.2357077 7.32572247,16.9496075 C6.50297833,16.0812539 5.74428448,15.1718803 5.03912701,14.2218333 C4.55826641,13.5782233 4.09879619,12.9242139 3.66071636,12.2499832 C3.19061138,11.5143959 2.75253154,10.7686403 2.31445171,10.0126007 C2.11142437,9.6857115 1.97256816,9.32808618 2.00459331,8.95000863 C1.98320293,8.44944873 2.17547466,8.03058224 2.42128276,7.62199965 C2.77392193,7.0293469 3.12656109,6.4368097 3.51122539,5.85444085 C3.95993999,5.19049414 4.43004497,4.54688411 4.92154034,3.90327409 C5.30620464,3.38214641 5.71238018,2.87130262 6.1397044,2.38091107 C6.7594212,1.68622822 7.40052838,1.01199761 8.04163556,0.337651454 C8.23390728,0.143528502 8.46908062,-0.00968996982 8.76818341,0.00047837525 Z M8.28732281,0.307030869 C7.96682965,0.56239499 7.67836163,0.858663589 7.40052838,1.16521608 C6.2785606,2.36057437 5.23151958,3.61717384 4.28043316,4.94529836 C3.57527569,5.92596591 2.90214336,6.9373696 2.34647686,8.01013 C2.07927837,8.54142603 1.9938377,9.10334265 2.26103618,9.65497537 C2.49608867,10.1454825 2.77392193,10.6154218 3.04099956,11.0852455 C3.62869121,12.1069331 4.30194439,13.0877162 5.02849224,14.0275948 C5.6588438,14.8348228 6.3107066,15.6213674 6.97320416,16.3978592 C7.34711285,16.8371779 7.7638023,17.2458761 8.18049176,17.6442903 C8.5223753,17.9610111 8.90716046,17.9507273 9.25967877,17.6545742 C9.53751202,17.4092629 9.80458966,17.1538988 10.0503978,16.8882507 C10.9907286,15.8768471 11.8668882,14.814255 12.6788768,13.7007057 C13.5231321,12.5565357 14.2923399,11.3713458 14.9762279,10.1250302 C15.1792552,9.74695267 15.3716478,9.36899066 15.3501365,8.93984028 C15.3608922,8.60278275 15.2753306,8.28594636 15.1150841,7.98979331 C14.5273924,6.85567619 13.8116002,5.80336803 13.0636619,4.76134375 C12.347628,3.77027676 11.5784202,2.81006145 10.7450413,1.90068786 C10.2640599,1.36950738 9.76192975,0.858663589 9.24916485,0.358103693 C8.96045514,0.0720034388 8.60793683,0.0413828543 8.28732281,0.307030869 Z M13.3316315,10.2540234 C13.4266353,10.2540234 13.5217586,10.2540234 13.6062462,10.2639291 C13.7648248,10.2837404 13.8070089,10.3634358 13.7436731,10.4928847 C13.6802177,10.6421449 13.5957301,10.7813869 13.5111229,10.920854 C12.7293435,12.2145547 11.8524408,13.4388034 10.8909309,14.6130735 C10.4472215,15.1505678 9.98224073,15.6780438 9.52789566,16.215538 C9.39058832,16.3748164 9.24264534,16.5340948 9.09470236,16.6932606 C8.85163611,16.9421402 8.59817322,16.9321219 8.36562311,16.683355 C8.15434428,16.4543993 7.94306546,16.2255562 7.73166713,15.9865823 C6.96052331,15.1207382 6.22080842,14.2250646 5.54454887,13.2895432 C5.02686794,12.5728467 4.54073544,11.8264332 4.05484194,11.0899254 C3.93844738,10.920854 3.84356311,10.7417643 3.74843984,10.5624494 C3.64268093,10.3733415 3.69562013,10.2738347 3.9175346,10.2639291 C4.097026,10.2540234 4.28727255,10.2540234 4.46688345,10.2540234 L13.3316315,10.2540234 Z M8.51368559,10.3833597 L3.95971867,10.3833597 C3.9175346,10.3833597 3.86459539,10.3933779 3.80125955,10.403171 C3.82229183,10.4629426 3.83292747,10.5128086 3.86459539,10.5624494 C4.02305451,10.8411585 4.19214928,11.1098493 4.36124404,11.3785401 C4.94238031,12.2942502 5.56570065,13.1900364 6.25247634,14.0358441 C6.97091995,14.911819 7.72115099,15.7577392 8.46074638,16.6235834 C8.50304995,16.6534129 8.56638579,16.683355 8.60868936,16.7230902 C8.62984114,16.7131845 8.64035728,16.7031663 8.66150907,16.6932606 L8.66150907,10.5227142 C8.66150907,10.4232075 8.6192055,10.3833597 8.51368559,10.3833597 Z M5.34378618,8.50241131 C5.51288094,8.5122044 5.59736857,8.60180553 5.59736857,8.76108393 L5.59736857,9.12939411 C5.58685243,9.28855994 5.5022453,9.36825542 5.33327004,9.36825542 L5.07968765,9.38806673 L5.07968765,9.38806673 C4.95289645,9.37804851 4.82610526,9.38806673 4.7099497,9.34833155 C4.62534257,9.31838947 4.5302193,9.23880655 4.50918702,9.15911107 C4.47739959,9.01986911 4.48803523,8.86059071 4.50918702,8.7114431 C4.51970316,8.58188166 4.62534257,8.5122044 4.76264991,8.50241131 C4.95289645,8.49239309 5.15365914,8.49239309 5.34378618,8.50241131 Z M6.70682142,8.50241131 C6.82297697,8.50241131 6.96052331,8.5122044 6.99207173,8.63174762 C7.02385916,8.75117827 7.0343753,8.90043845 6.98143609,9.00985089 C6.93925203,9.08954637 6.93925203,9.1391872 6.98143609,9.20908959 C7.00270738,9.24882477 7.01322352,9.30848381 7.00270738,9.34833155 C7.00270738,9.36825542 6.92861638,9.38806673 6.88643232,9.37804851 C6.8547644,9.36825542 6.83361261,9.32840768 6.80194469,9.2984656 C6.74900548,9.24882477 6.70682142,9.16912929 6.65400171,9.15911107 C6.50605873,9.1391872 6.35811575,9.1391872 6.21029227,9.14920542 C6.17850485,9.14920542 6.13632078,9.21888268 6.13632078,9.26874864 C6.12568514,9.3384259 6.10453336,9.38806673 6.02004573,9.38806673 C5.92492246,9.38806673 5.92492246,9.32840768 5.92492246,9.25873042 L5.92492246,8.61182375 C5.92492246,8.53212827 5.95670988,8.5122044 6.04119751,8.5122044 C6.11162379,8.50567567 6.19145086,8.50349943 6.27126022,8.50277401 L6.70682142,8.50241131 Z M12.7083112,8.50241131 C12.8772865,8.5122044 12.9618936,8.59189988 12.951258,8.75117827 C12.951258,8.85068506 12.8984382,8.95019185 12.8772865,9.05971685 C12.8667703,9.09945202 12.8984382,9.1391872 12.8984382,9.17914751 C12.8984382,9.23880655 12.9194705,9.34833155 12.8984382,9.36825542 C12.8138311,9.41800882 12.7504953,9.37804851 12.7293435,9.26874864 C12.7083112,9.17914751 12.6447364,9.12939411 12.5392164,9.1391872 C12.4229414,9.1391872 12.3171825,9.14920542 12.2011464,9.1391872 C12.1060231,9.12939411 12.0530839,9.15911107 12.0637196,9.25873042 C12.0743552,9.32840768 12.0425678,9.38806673 11.9579607,9.38806673 C11.8524408,9.38806673 11.8524408,9.31838947 11.8524408,9.25873042 L11.8524408,8.64165327 C11.8524408,8.53212827 11.9052605,8.5122044 12.0003837,8.5122044 C12.1060231,8.50241131 12.2221787,8.50241131 12.3278181,8.50241131 C12.4547288,8.50241131 12.5814005,8.49239309 12.7083112,8.50241131 Z M13.6200287,8.4960952 L13.7436731,8.50241131 L13.7436731,8.50241131 L14.0607108,8.50241131 C14.2614735,8.5122044 14.3565968,8.60180553 14.3671129,8.7810078 C14.377629,8.88051458 14.377629,8.97011572 14.3671129,9.0696225 C14.3565968,9.25873042 14.2614735,9.35823721 14.0712269,9.37804851 L13.3738156,9.38806673 L13.3738156,9.38806673 C13.289328,9.38806673 13.2682957,9.34833155 13.2682957,9.27865429 L13.2682957,8.61182375 C13.2682957,8.53212827 13.3104798,8.5122044 13.3844512,8.5122044 C13.461968,8.49899686 13.5394315,8.49459435 13.6200287,8.4960952 Z M3.95971867,8.50241131 C4.14996521,8.50241131 4.24496898,8.66157714 4.19214928,8.85068506 C4.18163314,8.90043845 4.18163314,8.96021006 4.20278492,9.00985089 C4.28727255,9.19907138 4.20278492,9.35823721 3.99138659,9.37804851 L3.2517912,9.37804851 C3.15666792,9.37804851 3.125,9.3384259 3.125,9.25873042 L3.125,8.61182375 C3.125,8.53212827 3.16730357,8.50241131 3.2517912,8.50241131 C3.48422181,8.50241131 3.72716856,8.49239309 3.95971867,8.50241131 Z M11.1761812,8.49239309 C11.345276,8.49239309 11.4509154,8.5521647 11.4825833,8.70142488 C11.535403,8.92036232 11.5565548,9.1391872 11.5882227,9.35823721 C11.4296441,9.38806673 11.3663083,9.35823721 11.3663083,9.23880655 C11.3663083,9.14920542 11.3029724,9.11948846 11.2290009,9.12939411 L10.7746558,9.12939411 C10.6796521,9.12939411 10.6268324,9.16912929 10.6268324,9.25873042 C10.6268324,9.34833155 10.5845288,9.38806673 10.4894055,9.37804851 C10.3837661,9.36825542 10.4047984,9.28855994 10.415434,9.22878833 C10.4365858,9.0696225 10.4472215,8.91045667 10.4787699,8.75117827 C10.5105573,8.58188166 10.6268324,8.49239309 10.8170789,8.49239309 L11.1761812,8.49239309 Z M8.27061934,8.50241131 C8.34459083,8.50241131 8.40792667,8.52222261 8.38677489,8.60180553 C8.37625875,8.64165327 8.3128034,8.68150101 8.27061934,8.68150101 C8.06985665,8.69140666 7.86909397,8.69140666 7.67884742,8.68150101 C7.55217573,8.68150101 7.49923652,8.72123619 7.49923652,8.85068506 C7.49923652,9.18916572 7.48872038,9.18916572 7.84794218,9.18916572 C7.92191367,9.18916572 8.0064013,9.19907138 8.08049229,9.18916572 C8.11204072,9.17914751 8.14382814,9.1391872 8.18601221,9.11948846 C8.15434428,9.08954637 8.12267636,9.05971685 8.09088893,9.03979298 C8.05922101,9.02977476 8.01691744,9.03979298 7.99588516,9.02977476 C7.96409774,9.00985089 7.91139753,8.97011572 7.91139753,8.94017363 C7.91139753,8.91045667 7.96409774,8.85068506 7.98536902,8.85068506 C8.09088893,8.84077941 8.20716399,8.85068506 8.32331954,8.85068506 C8.34459083,8.85068506 8.37625875,8.87049637 8.38677489,8.89042024 C8.51368559,9.12939411 8.35510697,9.36825542 8.08049229,9.36825542 C7.90076189,9.36825542 7.71063485,9.36825542 7.53090444,9.34833155 C7.37244532,9.3384259 7.29847383,9.23880655 7.29847383,9.09945202 C7.29847383,8.98002137 7.28795769,8.85068506 7.29847383,8.73114184 C7.30910947,8.59189988 7.39371661,8.5122044 7.53090444,8.50241131 L8.27061934,8.50241131 Z M10.1830034,8.5122044 C10.2041552,8.52222261 10.225307,8.56207035 10.2146713,8.59189988 C10.1830034,8.81083732 10.1406999,9.02977476 10.0878801,9.24882477 C10.077364,9.28855994 10.0139087,9.3384259 9.96108895,9.34833155 C9.8977531,9.36825542 9.81314597,9.35823721 9.74981013,9.35823721 C9.65468685,9.35823721 9.60186715,9.31838947 9.58071536,9.21888268 C9.54904744,9.07952815 9.51737952,8.95019185 9.48571159,8.81083732 C9.44328852,8.83076119 9.43277238,8.83076119 9.4117401,8.83076119 L9.34816525,9.15911107 C9.31661683,9.3384259 9.27419376,9.36825542 9.09470236,9.36825542 C8.86227175,9.36825542 8.82008769,9.34833155 8.78830026,9.16912929 C8.75651284,8.99003959 8.71432877,8.81083732 8.69317699,8.63174762 C8.69317699,8.59189988 8.73548056,8.5521647 8.76714848,8.5122044 C8.80945205,8.54214648 8.87278789,8.57197601 8.88342353,8.60180553 C8.9256076,8.76108393 8.94675938,8.93026798 8.98906295,9.09945202 C8.99957909,9.14920542 9.04188265,9.18916572 9.07367008,9.22878833 C9.1052185,9.18916572 9.15815771,9.14920542 9.16867385,9.09945202 C9.21085792,8.94017363 9.25328098,8.7810078 9.2848294,8.6217294 C9.30598119,8.5122044 9.37995268,8.50241131 9.47507595,8.5122044 C9.57019922,8.5122044 9.60186715,8.57197601 9.62301893,8.65155892 C9.65468685,8.81083732 9.68647428,8.97011572 9.73917448,9.12939411 C9.74981013,9.16912929 9.80251033,9.19907138 9.83429776,9.23880655 C9.86596568,9.19907138 9.90826925,9.16912929 9.91890489,9.12939411 C9.95057281,8.97011572 9.98224073,8.81083732 10.0139087,8.64165327 C10.0245443,8.60180553 10.0455766,8.5521647 10.077364,8.52222261 C10.0983963,8.50241131 10.1513355,8.50241131 10.1830034,8.5122044 Z M3.90689896,9.01986911 L3.44191824,9.01986911 C3.36806625,9.01986911 3.32576269,9.03979298 3.32576269,9.11948846 C3.32576269,9.18916572 3.35743061,9.22878833 3.44191824,9.22878833 L3.67434885,9.22878833 C3.74843984,9.22878833 3.82229183,9.21888268 3.89626332,9.22878833 C3.98087045,9.22878833 4.02305451,9.20908959 4.02305451,9.11948846 C4.02305451,9.03979298 3.98087045,9.01986911 3.90689896,9.01986911 Z M14.0185267,8.69140666 L13.6698211,8.69140666 C13.4689389,8.69140666 13.4689389,8.69140666 13.4689389,8.88051458 C13.4786882,9.19976552 13.4439539,9.19307577 13.7147894,9.18974379 L13.7964928,9.18916572 C14.1451984,9.18916572 14.1663502,9.23880655 14.1558341,8.82074297 C14.1558341,8.74116006 14.1028949,8.69140666 14.0185267,8.69140666 Z M5.05853587,8.68150101 L4.86840882,8.68150101 C4.76264991,8.68150101 4.69931406,8.73114184 4.7099497,8.83076119 C4.72046584,8.95019185 4.63585871,9.09945202 4.81558912,9.17914751 C4.82610526,9.18916572 4.84725704,9.18916572 4.85777318,9.18916572 L5.24878241,9.18916572 C5.33327004,9.18916572 5.38608975,9.14920542 5.39672539,9.04969863 C5.41775767,8.70142488 5.40724153,8.68150101 5.05853587,8.68150101 Z M6.69630528,8.69140666 L6.26311198,8.69140666 C6.14683693,8.69140666 6.115169,8.73114184 6.115169,8.84077941 C6.115169,8.96021006 6.15735307,9.01986911 6.2947799,8.99994524 C6.32999304,8.98666266 6.36520618,8.98668767 6.40353521,8.98818019 L6.46375517,8.99003959 L6.46375517,8.99003959 L6.69630528,8.99003959 C6.82297697,8.99003959 6.81246083,8.91045667 6.81246083,8.83076119 C6.81246083,8.75117827 6.81246083,8.68150101 6.69630528,8.69140666 Z M12.391154,8.68150101 L12.169359,8.68150101 C12.0743552,8.68150101 12.0319322,8.7114431 12.0425678,8.80093167 C12.0530839,8.88051458 12.0003837,8.99003959 12.1588429,8.99003959 L12.6343397,8.99003959 C12.6660076,8.99003959 12.7188273,8.95019185 12.7188273,8.93026798 C12.7716471,8.76108393 12.7188273,8.70142488 12.5392164,8.69140666 C12.4969129,8.68150101 12.4442127,8.68150101 12.391154,8.68150101 Z M11.1655456,8.69140666 L10.8170789,8.69140666 C10.71132,8.69140666 10.6796521,8.74116006 10.6796521,8.83076119 C10.6796521,8.92036232 10.7323523,8.95019185 10.8170789,8.94017363 L11.1445133,8.94017363 C11.2184848,8.94017363 11.2818206,8.93026798 11.2818206,8.84077941 C11.2818206,8.76108393 11.2713045,8.69140666 11.1655456,8.69140666 Z M3.7378042,8.65971775 L3.66383271,8.66157714 L3.66383271,8.66157714 C3.57934508,8.67148279 3.49473795,8.66157714 3.42076646,8.67148279 C3.37858239,8.68150101 3.32576269,8.73114184 3.32576269,8.76108393 C3.32576269,8.79091345 3.37858239,8.86059071 3.42076646,8.86059071 C3.57934508,8.87049637 3.7378042,8.87049637 3.89626332,8.86059071 C3.93844738,8.86059071 3.97035431,8.80093167 4.00202223,8.77110214 C3.95971867,8.73114184 3.92805074,8.68150101 3.88574718,8.67148279 C3.83643285,8.65820021 3.78711852,8.65822523 3.7378042,8.65971775 Z M9.11585414,1.33657194 C9.87648182,2.14275701 10.5950449,2.98867725 11.2713045,3.85452137 C11.9579607,4.7303837 12.6026718,5.62605734 13.1943242,6.55167307 C13.3738156,6.83038212 13.5429104,7.11888426 13.7013695,7.40749897 C13.8282802,7.62643641 13.7543087,7.72605576 13.4902102,7.72605576 L8.86227175,7.72605576 C8.83048433,7.73607398 8.77778412,7.73607398 8.72496442,7.73607398 L4.03369016,7.73607398 C3.65331657,7.73607398 3.60049686,7.6563785 3.7906239,7.32791605 C4.31894047,6.41231854 4.91059289,5.52655056 5.55518451,4.68063031 C6.13632078,3.91418041 6.74900548,3.16776695 7.36180968,2.42135349 C7.66833128,2.05315587 8.0064013,1.70476956 8.32331954,1.34647759 C8.58753758,1.05786288 8.84100047,1.04795723 9.11585414,1.33657194 Z M8.84100047,1.27680033 C8.83048433,1.28681854 8.80945205,1.28681854 8.7989359,1.29683676 C8.78830026,1.34647759 8.77778412,1.39623098 8.77778412,1.45600259 L8.77778412,7.43744106 C8.77778412,7.53694784 8.77778412,7.62643641 8.93624324,7.62643641 C10.4365858,7.61653076 11.9370479,7.62643641 13.4477871,7.61653076 C13.5111229,7.6066251 13.5641817,7.59671945 13.6485498,7.59671945 C13.5957301,7.49721267 13.5641817,7.42742284 13.5323942,7.36776379 C13.2786923,6.95971843 13.0358651,6.5317492 12.7504953,6.13372205 C12.1482072,5.28768924 11.5565548,4.45167465 10.9119632,3.63558393 C10.3308269,2.90909434 9.69699042,2.21243427 9.08418622,1.50575598 C9.01009523,1.4260605 8.9256076,1.34647759 8.84100047,1.27680033 Z" id="形状结合"></path>
            </g>
        </g>
    </g>
</svg>