<?xml version="1.0" encoding="UTF-8"?>
<svg width="18px" height="18px" viewBox="0 0 18 18" version="1.1" xmlns="http://www.w3.org/2000/svg" xmlns:xlink="http://www.w3.org/1999/xlink">
    <!-- Generator: Sketch 60.1 (88133) - https://sketch.com -->
    <title>狮城记</title>
    <desc>Created with Sketch.</desc>
    <g id="页面-1" stroke="none" stroke-width="1" fill="none" fill-rule="evenodd">
        <g id="web首页1" transform="translate(-46.000000, -1137.000000)" fill="#365393">
            <g id="狮城记" transform="translate(46.000000, 1137.000000)">
                <path d="M14.6993265,15 L3.292917,15 L1.02603293,8.01242922 C0.880119443,7.56434951 1.37630271,7.17546427 1.79894867,7.40737175 L4.40758767,8.83290962 L8.55741368,3.21655266 C8.77222,2.92620001 9.21808827,2.92807325 9.43057237,3.2206738 L13.4975722,8.83290962 L16.20568,7.38714072 C16.628326,7.16122763 17.1183166,7.55048751 16.9743383,7.99631933 L14.6993265,15 Z" id="Fill-1"></path>
                <path d="M8,3 C8,3.5521045 8.44760522,4 9,4 C9.5521045,4 10,3.5521045 10,3 C10,2.44760522 9.5521045,2 9,2 C8.44760522,2 8,2.44760522 8,3" id="Fill-3"></path>
                <path d="M0,7 C0,7.55239478 0.447605225,8 1,8 C1.55239478,8 2,7.55239478 2,7 C2,6.4478955 1.55239478,6 1,6 C0.447605225,6 0,6.4478955 0,7" id="Fill-5"></path>
                <path d="M16,7 C16,7.55239478 16.4476052,8 17,8 C17.5523948,8 18,7.55239478 18,7 C18,6.4478955 17.5523948,6 17,6 C16.4476052,6 16,6.4478955 16,7" id="Fill-7"></path>
                <polygon id="Fill-9" points="3 17 15 17 15 16 3 16"></polygon>
            </g>
        </g>
    </g>
</svg>