<?xml version="1.0" encoding="UTF-8"?>
<svg width="14px" height="18px" viewBox="0 0 14 18" version="1.1" xmlns="http://www.w3.org/2000/svg" xmlns:xlink="http://www.w3.org/1999/xlink">
    <!-- Generator: Sketch 60.1 (88133) - https://sketch.com -->
    <title>知识car</title>
    <desc>Created with Sketch.</desc>
    <g id="页面-1" stroke="none" stroke-width="1" fill="none" fill-rule="evenodd">
        <g id="web首页1" transform="translate(-48.000000, -1341.000000)" fill="#365393">
            <g id="知识car" transform="translate(46.000000, 1341.000000)">
                <path d="M13.4153524,14.6458965 L4.58445725,14.6458965 C4.26144768,14.6458965 4.04617142,14.8695824 4.04617142,15.2049137 C4.04617142,15.540245 4.26144768,15.763931 4.58445725,15.763931 L13.4153524,15.763931 C13.738362,15.763931 13.9538286,15.540245 13.9538286,15.2049137 C13.9538286,14.8695824 13.738362,14.6458965 13.4153524,14.6458965 M11.6921906,0 C12.9846095,0 13.8462856,0.782505599 13.8462856,2.01238309 L13.8462856,2.01238309 L13.8462856,12.9688447 C13.8462856,13.3043736 13.630819,13.5278619 13.3078094,13.5278619 L13.3078094,13.5278619 L4.26144768,13.5278619 C3.61542854,13.5278619 2.96921906,13.8631933 2.96921906,14.4222105 L2.96921906,14.4222105 L2.96921906,15.652088 C2.96921906,16.2111053 3.7229715,16.7701225 4.36918099,16.7701225 L4.36918099,16.7701225 L13.8462856,16.7701225 C14.3845715,16.7701225 14.923238,16.2111053 14.923238,15.652088 L14.923238,15.652088 L14.923238,2.68324331 C14.923238,2.3477144 15.1385142,2.12422606 15.4615238,2.12422606 C15.7845334,2.12422606 16,2.45955737 16,2.68324331 L16,2.68324331 L16,15.8757739 C16,16.9938085 15.0307809,18 13.8460953,18 L13.8460953,18 L4.04617142,18 C3.07695236,17.888157 2.1077333,17.1054538 2,16.0990647 L2,16.0990647 L2,2.01238309 C2,0.670662627 3.18449532,0 4.36918099,0 L4.36918099,0 Z M9.5892603,4 L6.41559605,4 C5.84055649,4 5.49241195,4.35692245 5.39950441,4.81741616 L5.06107258,5.79053063 C5.03074029,5.77376195 4.99555166,5.76260812 4.95741738,5.76260812 L4.20826575,5.76260812 C4.09290754,5.76260812 4,5.85115585 4,5.96117659 L4,6.13356771 C4,6.24358845 4.09378328,6.33213617 4.20826575,6.33213617 L4.49184472,6.37872427 C4.40188283,6.54557641 4.35101058,6.73663311 4.35101058,6.95849562 L4.24640003,8.10316657 C4.24640003,8.13670393 4.24934569,8.17024129 4.25324669,8.20377864 C4.24934569,8.22426526 4.24640003,8.24664879 4.24640003,8.26804593 L4.24640003,9.6448227 C4.24640003,9.84058374 4.41366545,10 4.61898554,10 L5.18725805,10 C5.39265776,10 5.55984356,9.84149426 5.55984356,9.6448227 L5.55984356,9.20208407 L10.4459681,9.20208407 L10.4459681,9.6448227 C10.4459681,9.84058374 10.6121986,10 10.8185536,10 L11.3867465,10 C11.5921462,10 11.7594117,9.84149426 11.7594117,9.6448227 L11.7594117,8.26804593 C11.7594117,8.24573828 11.756466,8.22426526 11.752565,8.20377864 C11.756466,8.17024129 11.7594117,8.13571754 11.7594117,8.10316657 L11.6547215,6.95849562 C11.6547215,6.7357226 11.6028939,6.54459001 11.513967,6.37690323 L11.7916546,6.33213617 C11.9070128,6.33213617 12,6.24260205 12,6.13356771 L12,5.96117659 C11.9980893,5.85115585 11.9051818,5.76169761 11.7897439,5.76169761 L11.0405923,5.76169761 C11.0054037,5.76169761 10.9721257,5.77194092 10.9427488,5.78681269 L10.6053519,4.81741616 C10.4967608,4.26564318 10.089942,4 9.5892603,4 Z M10.1799039,7.47483434 C10.4908695,7.47483434 10.7442754,7.71536244 10.7442754,8.01272194 C10.7442754,8.31000556 10.4919044,8.55053366 10.1799039,8.55053366 C9.86798292,8.55053366 9.61561197,8.31000556 9.61561197,8.01272194 C9.61561197,7.71536244 9.86798292,7.47483434 10.1799039,7.47483434 Z M5.82391752,7.47483434 C6.13488312,7.47483434 6.38820942,7.71536244 6.38820942,8.01272194 C6.38820942,8.31000556 6.13488312,8.55053366 5.82391752,8.55053366 C5.51191696,8.55053366 5.25962562,8.31000556 5.25962562,8.01272194 C5.25962562,7.71536244 5.51191696,7.47483434 5.82391752,7.47483434 Z M8.80492004,7.54479235 C8.89782758,7.54479235 8.97306119,7.6165714 8.97306119,7.70420861 L8.97306119,8.15347261 C8.97306119,8.24202033 8.89782758,8.31281299 8.80492004,8.31281299 L7.22342194,8.31281299 C7.13051439,8.31281299 7.05520117,8.24110982 7.05520117,8.15347261 L7.05520117,7.70420861 C7.05520117,7.61566088 7.13051439,7.54479235 7.22342194,7.54479235 L8.80492004,7.54479235 Z M9.94719715,4.66642218 C10.0292774,4.76711012 10.0801497,4.79321159 10.1036353,4.91347564 L10.3560062,5.55842481 L10.4478788,5.90897365 C10.4273389,6.16520815 10.1036353,6.36848096 9.83470499,6.36848096 L6.17110671,6.36848096 C5.9021764,6.36848096 5.57847284,6.16619455 5.55793287,5.90897365 L5.64980545,5.55842481 L5.89819579,4.92925793 L5.9021764,4.91438616 C5.92661737,4.78668623 5.98234598,4.7643027 6.0634709,4.66642218 L9.94719715,4.66642218 Z" id="Fill-1"></path>
            </g>
        </g>
    </g>
</svg>