<?xml version="1.0" encoding="UTF-8"?>
<svg width="18px" height="18px" viewBox="0 0 18 18" version="1.1" xmlns="http://www.w3.org/2000/svg" xmlns:xlink="http://www.w3.org/1999/xlink">
    <!-- Generator: Sketch 60.1 (88133) - https://sketch.com -->
    <title>车头条</title>
    <desc>Created with Sketch.</desc>
    <g id="页面-1" stroke="none" stroke-width="1" fill="none" fill-rule="evenodd">
        <g id="web首页1" transform="translate(-46.000000, -1035.000000)" fill="#365393">
            <g id="车头条" transform="translate(46.000000, 1035.000000)">
                <path d="M17.3222715,10.4636106 C17.0457618,10.4824497 16.7880338,10.4824497 16.5297441,10.5015356 L16.5297441,7.12053016 C16.7879536,7.13953382 17.0643028,7.13953382 17.3222715,7.15845521 C17.359193,8.27276051 17.3774129,9.36830896 17.3222715,10.4636106 L17.3222715,10.4636106 Z M17.3222715,14.4113528 C17.0644633,14.4301097 16.7880338,14.4489488 16.5297441,14.4680347 L16.5297441,11.0870293 C16.7879536,11.1059506 17.0643028,11.1249543 17.3222715,11.1249543 C17.359193,12.2200091 17.359193,13.3161335 17.3222715,14.4113528 L17.3222715,14.4113528 Z M15.9217437,6.51611517 L15.9217437,15.7335466 L10.6145225,15.7335466 L10.6145225,14.0524223 L14.5027551,14.0524223 L14.5027551,13.2212797 L10.6145225,13.2212797 L10.6145225,12.163574 L14.5027551,12.163574 L14.5027551,11.3325137 L10.6145225,11.3325137 L10.6145225,10.2746435 L14.5027551,10.2746435 L14.5027551,9.44366545 L10.6145225,9.44366545 L10.6145225,8.38579525 L14.4843746,8.38579525 L14.4843746,7.55481718 L10.5959815,7.55481718 L10.5959815,6.49702925 L14.4843746,6.49702925 L14.4843746,5.66596892 L10.5959815,5.66596892 L10.5959815,4.60818099 L14.4843746,4.60818099 L14.4843746,3.77728519 L10.5959815,3.77728519 L10.5959815,2.30404936 L15.9032829,2.30404936 L15.9032829,3.13527422 C16.3825397,3.13527422 16.8614755,3.15411335 17.3222715,3.17303473 C17.359193,4.28084095 17.359193,5.3895521 17.3222715,6.49735832 C16.8614755,6.49719378 16.3825397,6.51611517 15.9217437,6.51611517 L15.9217437,6.51611517 Z M8.16365903,13.2780439 C7.61080008,13.2401188 7.05794114,13.2212797 6.50508219,13.1836015 C5.47304672,11.162468 4.38586983,9.19818099 3.39067557,7.17721207 C3.42751678,9.12265996 3.40905604,11.0681079 3.40905604,13.0133912 C2.94834025,12.9756307 2.46940452,12.9568739 2.00868873,12.9190311 C2.0270692,10.2558867 2.0270692,7.57373857 2.00868873,4.91059415 C2.54300668,4.8726691 3.07756541,4.85391225 3.59350288,4.81615174 C4.58853662,6.68607861 5.60211135,8.55608775 6.57876461,10.4636106 C6.59730561,8.51832724 6.57876461,6.57279707 6.59730561,4.62734918 C7.11324308,4.60842779 7.62918055,4.5895064 8.16365903,4.5895064 L8.16365903,13.2780439 Z M17.8936715,6.8750457 C17.9672736,5.64729433 18.0594168,4.40078611 17.9119717,3.17303473 C17.8382893,2.49309872 17.0644633,2.56861974 16.5851263,2.47417733 C16.5115241,2.24744973 16.4376009,2.03972578 16.3639185,1.81316271 C15.5714713,1.6997989 14.7974848,1.66195612 14.0051981,1.66195612 C13.1759097,1.66195612 12.3467015,1.6997989 11.5174934,1.6997989 C11.2226834,1.6997989 10.9093325,1.6997989 10.6146028,1.68087751 L10.6146028,0 L9.39828102,0 C6.26541366,0.566572212 0,1.68087751 0,1.68087751 L0,16.318958 C0,16.318958 6.22865272,17.4143419 9.34297907,18 L10.6145225,18 L10.6145225,16.318958 L12.9364017,16.318958 C13.6552467,16.318958 14.3739313,16.3377971 15.0926158,16.3377971 C15.4980296,16.318958 15.9588257,16.3755576 16.3273181,16.14883 C16.5116846,15.8469104 16.4931436,15.4691408 16.5668261,15.1290494 C17.0459223,15.0346069 17.8015283,15.0723675 17.8937517,14.4301097 C18.0043556,13.2401188 18.0043556,11.9935283 17.8568303,10.803702 C18.0779578,9.50051188 18.0041951,8.1783181 17.8936715,6.8750457 L17.8936715,6.8750457 Z" id="Fill-1"></path>
            </g>
        </g>
    </g>
</svg>